<svg width="46" height="49" viewBox="0 0 46 49" fill="none" xmlns="http://www.w3.org/2000/svg">
<path d="M46 0H0V49H46V0Z" fill="#E69B36"/>
<path d="M22.6322 25.8975C22.5104 26.1052 22.3801 26.3004 22.2666 26.5207C22.1279 26.7977 22.0144 27.0935 21.9682 27.4397C21.9388 27.6475 21.8925 27.8174 21.7496 27.9056C21.695 27.9433 21.6614 28.0441 21.6152 28.1133C21.5521 28.2077 21.4807 28.2833 21.4218 28.384C21.3462 28.5099 21.2747 28.6421 21.2033 28.7743C21.1907 28.7995 21.1949 28.8498 21.1991 28.8876C21.2369 29.089 21.2075 29.2653 21.136 29.4415C21.0057 29.7752 20.8839 30.1151 20.7494 30.4424C20.7031 30.5558 20.6149 30.6313 20.5434 30.7194C20.5056 30.7698 20.4594 30.8013 20.43 30.8579C20.2871 31.1538 20.1904 31.4748 20.2282 31.8462C20.245 32.0099 20.2871 32.1736 20.3291 32.3309C20.3921 32.5638 20.3417 32.6772 20.1778 32.6772C19.8962 32.6772 19.6146 32.6772 19.333 32.6772C19.1691 32.6772 19.1187 32.5764 19.0977 32.3372C19.0724 32.0099 19.1985 31.7581 19.2574 31.4685C19.312 31.2041 19.3792 30.9397 19.4381 30.6754C19.4465 30.6313 19.4549 30.5683 19.4381 30.5432C19.2784 30.2851 19.3708 30.0522 19.4591 29.8129C19.4843 29.7437 19.5137 29.6745 19.5558 29.6304C19.686 29.4919 19.665 29.2716 19.7113 29.089C19.7659 28.875 19.8542 28.6799 19.9424 28.4973C20.0139 28.3525 20.1189 28.2518 20.1946 28.107C20.2786 27.937 20.3501 27.7482 20.4215 27.5656C20.4342 27.5279 20.4426 27.4712 20.4342 27.4397C20.3501 27.1691 20.4215 26.9173 20.4552 26.6592C20.493 26.3633 20.5392 26.0674 20.5813 25.7716C20.5855 25.7527 20.5771 25.7212 20.5686 25.7023C20.5392 25.6016 20.4972 25.5009 20.4846 25.3939C20.472 25.3058 20.4888 25.205 20.4972 25.0917C20.4846 25.0351 20.451 24.9532 20.4594 24.884C20.4804 24.67 20.5644 24.5378 20.7199 24.5252C20.6695 23.9838 20.6191 23.455 20.5728 22.9388C20.6947 22.8696 20.7872 22.8129 20.8881 22.7563C20.762 22.7311 20.6485 22.7059 20.535 22.6808C20.472 22.6682 20.43 22.6178 20.4426 22.5108C20.4636 22.2716 20.4888 22.0324 20.5098 21.7869C20.5266 21.598 20.5434 21.4155 20.5476 21.2266C20.556 20.937 20.5771 20.8993 20.7746 20.893C20.9091 20.8867 21.0394 20.8741 21.1865 20.8615C21.1739 20.6538 21.1612 20.4649 21.157 20.2698C21.1486 19.9361 21.1781 19.5962 21.2747 19.3004C21.384 18.973 21.5437 18.6835 21.7538 18.482C21.985 18.2554 22.2372 18.1484 22.5146 18.1861C22.586 18.1987 22.6533 18.2428 22.7247 18.268C22.7541 18.2743 22.7877 18.2743 22.813 18.2554C22.8256 18.2491 22.8214 18.1799 22.813 18.1484C22.6575 17.6322 22.7709 17.0782 23.0861 16.7446C23.5695 16.2284 24.0738 16.2599 24.595 16.5809C24.6874 16.6376 24.7841 16.6754 24.8723 16.7383C24.9354 16.7761 25.0026 16.8138 24.9858 16.9649C24.9774 17.0405 25.0321 17.1223 25.0405 17.2104C25.0615 17.3867 25.0909 17.5629 25.0909 17.7329C25.0867 17.9595 25.0237 18.0477 24.8766 18.0917C24.8219 18.1106 24.7673 18.1169 24.7168 18.1358C24.7252 18.268 24.7295 18.3939 24.7421 18.5575C24.9606 18.5072 25.175 18.4568 25.3935 18.4128C25.465 18.0162 25.465 18.0162 25.57 18.0225C25.5826 18.1043 25.591 18.1924 25.6036 18.2806C25.6667 18.3435 25.7886 18.2554 25.8012 18.4694C26.8897 18.4694 27.974 18.4694 29.0668 18.4694C29.0668 18.3183 29.0668 18.1547 29.0668 17.9973C29.2559 17.9469 29.2601 17.9532 29.2601 18.2176C29.2601 18.2743 29.2601 18.3309 29.2601 18.3876C29.2559 18.5072 29.2433 18.6142 29.3694 18.5198C29.4366 18.4694 29.4913 18.6331 29.4576 18.8031C29.7308 18.8031 30.004 18.8597 30.2646 18.7842C30.4999 18.7212 30.7269 18.8471 30.9539 18.759C30.9917 19.0549 30.9875 19.0737 30.8026 19.0611C30.4579 19.0486 30.1133 19.0171 29.7687 19.0108C29.5879 19.0108 29.403 19.0423 29.2223 19.0611C29.1761 19.0674 29.134 19.0549 29.0794 19.0549C29.0584 19.2059 28.9827 19.2248 28.8861 19.2248C28.5456 19.2185 28.2052 19.2248 27.8606 19.2248C27.7135 19.2248 27.5748 19.2374 27.4781 19.4514C27.4403 19.5333 27.3688 19.5773 27.3058 19.634C27.1797 19.741 27.1545 19.8102 27.1965 20.0243C27.2217 20.1565 27.2596 20.2824 27.2932 20.4083C27.3268 20.5279 27.3394 20.6286 27.2175 20.6223C27.062 20.616 27.0158 20.7608 26.9948 20.9622C26.9654 21.1951 26.9233 21.4343 26.7636 21.554C26.5871 21.6861 26.377 21.7617 26.2299 21.9505C26.066 22.152 25.9819 21.9128 25.8726 21.8813C25.4902 21.7617 25.1203 21.5665 24.7379 21.4029C24.7252 21.4532 24.7 21.5477 24.6748 21.6484C24.6958 21.6547 24.7126 21.661 24.7295 21.6736C24.9774 21.8246 25.0489 22.0387 25.0068 22.4919C24.9858 22.7248 24.969 22.9577 24.969 23.1906C24.9648 23.4865 24.8597 23.7068 24.7252 23.8705C24.6622 23.9523 24.5151 23.9083 24.4058 23.8894C24.3386 23.8768 24.284 23.9083 24.2924 23.9838C24.3092 24.1475 24.326 24.3426 24.3932 24.4622C24.5193 24.6888 24.6916 24.8588 24.8261 25.0791C24.969 25.312 25.1077 25.5638 25.2212 25.8345C25.3557 26.1493 25.4649 26.4955 25.5868 26.8228C25.5868 26.8291 25.591 26.8354 25.591 26.8354C25.7381 26.9236 25.7886 27.1187 25.8306 27.3201C25.8474 27.3957 25.8852 27.4649 25.8852 27.5405C25.8768 27.8426 25.8642 28.1511 25.8432 28.4532C25.8306 28.6295 25.7844 28.7932 25.7718 28.9694C25.7591 29.1331 25.7591 29.3031 25.7718 29.4667C25.7928 29.6808 25.8096 29.8885 25.7129 30.0773C25.6835 30.134 25.6751 30.2221 25.6709 30.2914C25.6667 30.4739 25.6709 30.6502 25.6709 30.8327C25.6709 31.0405 25.7297 31.1852 25.8474 31.3048C25.9441 31.3993 26.0239 31.5252 26.1206 31.6133C26.1962 31.6825 26.2845 31.7329 26.3686 31.777C26.4988 31.8462 26.6333 31.9092 26.7678 31.9784C26.8771 32.0351 26.8393 32.1799 26.8393 32.2932C26.8393 32.3939 26.7972 32.4128 26.7342 32.4191C26.3938 32.4379 26.0491 32.4757 25.7087 32.4694C25.5532 32.4694 25.4019 32.3561 25.2464 32.3309C25.0699 32.3057 24.8892 32.3309 24.7126 32.3183C24.637 32.312 24.5655 32.268 24.4899 32.2365C24.4226 32.2113 24.4184 32.1358 24.4395 32.054C24.4983 31.7959 24.5697 31.5378 24.6076 31.2671C24.637 31.0656 24.616 30.8516 24.616 30.6439C24.616 30.5683 24.6118 30.4865 24.595 30.4173C24.5824 30.348 24.5571 30.2914 24.5361 30.2284C24.5319 30.2221 24.5235 30.2158 24.5193 30.2032C24.4731 29.9703 24.4184 29.7437 24.3848 29.5045C24.347 29.2338 24.3428 28.9568 24.3092 28.6861C24.2924 28.5602 24.3176 28.4847 24.3722 28.4155C24.5109 28.2392 24.4857 28 24.4731 27.7797C24.4689 27.6727 24.4016 27.616 24.3134 27.616C24.1999 27.6097 24.0738 27.6223 23.9813 27.5468C23.8511 27.4397 23.7418 27.2698 23.6367 27.1124C23.4602 26.848 23.2963 26.571 23.124 26.3066C23.1114 26.2815 23.0777 26.2752 23.0567 26.2752C22.8466 26.3129 22.7205 26.1241 22.6322 25.8975ZM26.0912 20.2698C26.2046 20.0935 26.3055 19.9173 26.419 19.7599C26.4946 19.6529 26.5157 19.5522 26.4526 19.4011C26.3728 19.4137 26.2845 19.4325 26.2004 19.4451C26.2089 19.527 26.2089 19.5836 26.2131 19.6151C26.0996 19.6906 25.9987 19.7536 25.8852 19.8291C25.9525 19.9802 26.0113 20.1061 26.0912 20.2698ZM29.0668 18.5827C29.0584 18.5638 29.05 18.5576 29.0458 18.545C29.0416 18.5513 29.029 18.5576 29.029 18.5638C29.029 18.5764 29.0332 18.589 29.0374 18.6016C29.0458 18.5953 29.0542 18.589 29.0668 18.5827Z" fill="#243453"/>
<path d="M12.1882 28.554C13.7852 28.554 15.3571 28.554 16.9332 28.554C16.9332 28.2266 16.9332 27.9119 16.9332 27.5782C16.8869 27.5782 16.8491 27.5782 16.8071 27.5782C15.7101 27.5782 14.6174 27.5782 13.5205 27.5782C13.1926 27.5782 12.8774 27.4775 12.6043 27.1879C12.3437 26.911 12.1461 26.571 12.1714 26.036C12.184 25.7842 12.1545 25.5198 12.184 25.2743C12.2302 24.8525 12.4235 24.5755 12.6547 24.3489C12.869 24.1349 13.1086 24.0405 13.3608 24.0405C14.6006 24.0342 15.8362 24.0216 17.0761 24.0468C17.551 24.0531 17.9545 24.3237 18.173 25.0225C18.1982 25.1106 18.2318 25.1924 18.2739 25.3246C16.6852 25.3246 15.1344 25.3246 13.5751 25.3246C13.5751 25.6331 13.5751 25.9352 13.5751 26.2374C13.781 26.2374 13.9912 26.2374 14.2013 26.2374C14.8023 26.2437 15.3991 26.2626 16.0001 26.2689C16.2691 26.2689 16.5381 26.2374 16.8071 26.2437C17.1013 26.25 17.3997 26.2563 17.6645 26.4514C17.8284 26.571 17.9755 26.741 18.1184 26.911C18.3159 27.1376 18.3495 27.4649 18.3411 27.8111C18.3285 28.1385 18.3285 28.4721 18.2949 28.7932C18.2655 29.1016 18.1016 29.2968 17.9418 29.4667C17.7443 29.6745 17.5174 29.8004 17.2736 29.857C17.1769 29.8759 17.0761 29.9137 16.9794 29.9137C15.8404 29.92 14.6973 29.9326 13.5583 29.9074C13.1212 29.9011 12.7051 29.7248 12.3899 29.2149C12.2806 29.0261 12.2134 28.8183 12.1882 28.554Z" fill="#243454"/>
<path d="M33.7277 25.1421C32.0592 25.1421 30.4159 25.1421 28.7641 25.1421C28.7641 26.3004 28.7641 27.4523 28.7641 28.6106C29.9998 28.6106 31.2396 28.6106 32.4837 28.6106C32.4837 28.2266 32.4837 27.8426 32.4837 27.4397C32.4458 27.4397 32.4038 27.4334 32.366 27.4334C31.8196 27.4334 31.269 27.4334 30.7227 27.4334C30.4243 27.4334 30.1553 27.295 29.9241 27.0243C29.7854 26.8606 29.672 26.6529 29.6047 26.3633C29.6636 26.3633 29.6972 26.3633 29.735 26.3633C31.0337 26.3633 32.3324 26.3633 33.631 26.3633C33.7655 26.3633 33.7739 26.3759 33.7529 26.571C33.7487 26.6277 33.7445 26.6843 33.7445 26.7347C33.7445 27.232 33.7277 27.723 33.7487 28.2203C33.7739 28.8624 33.5848 29.2842 33.215 29.5674C33.0174 29.7185 32.8073 29.8066 32.5845 29.8066C31.2901 29.8129 29.9956 29.8192 28.7011 29.8066C28.2934 29.8004 27.9404 29.5611 27.6798 29.0764C27.5747 28.8813 27.5327 28.6421 27.5327 28.3903C27.5327 27.4209 27.5411 26.4577 27.5285 25.4883C27.5201 24.8966 27.7218 24.5063 28.0413 24.2419C28.2808 24.0468 28.5456 23.946 28.8272 23.946C30.0754 23.9523 31.3279 23.9272 32.5761 23.9586C32.988 23.9712 33.3747 24.2041 33.6268 24.7581C33.6731 24.8651 33.6899 24.9973 33.7277 25.1421Z" fill="#243454"/>
<path d="M37.7204 29.8066C37.1026 29.8066 36.4806 29.8192 35.8628 29.8004C35.4257 29.7878 35.0726 29.4982 34.8289 28.9505C34.7742 28.8246 34.7406 28.6547 34.7406 28.4973C34.7322 27.8552 34.7406 27.2131 34.7364 26.5773C34.7364 26.2437 34.7238 25.9101 34.7154 25.5701C34.707 24.884 34.9339 24.437 35.3458 24.1601C35.5938 23.9964 35.8417 23.9334 36.1107 23.9334C37.2497 23.9397 38.3929 23.9083 39.5318 23.946C40.0152 23.9649 40.4439 24.2545 40.6666 24.9721C40.7044 25.098 40.7296 25.2428 40.7338 25.3813C40.7381 26.3822 40.7423 27.3831 40.7338 28.384C40.7296 28.8183 40.5741 29.1394 40.3472 29.3912C40.095 29.6745 39.8134 29.8004 39.5024 29.8004C38.9056 29.8066 38.313 29.8066 37.7204 29.8066ZM35.9804 25.1232C35.9804 26.3129 35.9804 27.4964 35.9804 28.6861C37.1404 28.6861 38.3046 28.6861 39.4646 28.6861C39.4646 27.4964 39.4646 26.3066 39.4646 25.1232C38.2962 25.1232 37.1362 25.1232 35.9804 25.1232Z" fill="#233353"/>
<path d="M11.2467 25.3813C9.73373 25.3813 8.25433 25.3813 6.77073 25.3813C6.77073 26.4137 6.77073 27.4335 6.77073 28.4721C8.25853 28.4721 9.73373 28.4721 11.2173 28.4721C11.2467 28.812 11.1375 29.0387 10.9988 29.2527C10.7424 29.6493 10.4188 29.8255 10.0658 29.8759C9.93967 29.8948 9.81358 29.9074 9.6875 29.9074C8.66621 29.9074 7.64492 29.92 6.62363 29.9011C6.19494 29.8948 5.78727 29.7248 5.47206 29.2401C5.35017 29.0576 5.27032 28.8498 5.27032 28.5665C5.27452 27.4838 5.27873 26.3948 5.26612 25.312C5.26191 25.0603 5.32916 24.8651 5.42582 24.7077C5.6822 24.286 6.00581 24.0342 6.39668 24.0342C7.62391 24.0342 8.85113 24.0279 10.0784 24.0342C10.5407 24.0405 10.9105 24.3489 11.1585 24.9406C11.2047 25.0603 11.2131 25.2113 11.2467 25.3813Z" fill="#253454"/>
<path d="M29.0373 18.6016C29.0331 18.589 29.0289 18.5764 29.0289 18.5638C29.0289 18.5575 29.0373 18.5513 29.0457 18.545" fill="#FEFEFE"/>
</svg>
