<svg width="46" height="49" viewBox="0 0 46 49" fill="none" xmlns="http://www.w3.org/2000/svg">
<path d="M46 0H0V49H46V0Z" fill="#E69B36"/>
<path d="M37.7015 31.0316C37.7015 31.2699 37.7015 31.5081 37.7015 31.7412C37.6913 31.7878 37.6776 31.8345 37.6742 31.8811C37.582 32.6529 37.5854 33.4246 37.6059 34.1964C37.6162 34.5849 37.5615 34.9785 37.541 35.367C37.5342 35.4862 37.4591 35.5431 37.3156 35.5379C37.1142 35.5328 36.9093 35.5431 36.7146 35.5172C36.4004 35.4706 36.0897 35.4033 35.7755 35.3411C35.2052 35.2272 34.6963 35.2997 34.2695 35.6467C33.9724 35.8902 33.6104 36.0041 33.1903 35.9575C32.8522 35.9161 32.5176 35.8591 32.1829 35.7918C31.9404 35.7451 31.7082 35.7296 31.4794 35.8125C31.3018 35.8798 31.1311 35.8643 30.9603 35.8021C30.8715 35.771 30.7793 35.7451 30.6906 35.7089C30.4652 35.6208 30.2398 35.6208 30.0144 35.7037C29.5056 35.8953 28.966 35.9782 28.4128 35.9886C27.559 35.9989 26.7018 36.0041 25.8481 35.9886C25.3222 35.9782 24.8441 36.0456 24.4172 36.3097C24.2328 36.4237 24.0177 36.4392 23.7957 36.3667C23.7035 36.3356 23.6113 36.3097 23.5259 36.2735C23.3142 36.1802 23.0888 36.1388 22.8497 36.1388C22.5458 36.1388 22.2521 36.1025 21.9823 35.9834C21.8321 35.9161 21.6955 35.9264 21.5691 36.0248C21.494 36.0818 21.4018 36.1233 21.3164 36.1699C20.9544 36.3615 20.6368 36.3253 20.4319 36.0197C20.1929 35.6623 19.8582 35.5379 19.3801 35.6312C19.3733 35.6312 19.3698 35.6312 19.363 35.6312C18.9157 35.683 18.4717 35.6674 18.0414 35.5483C17.9219 35.5172 17.8024 35.4758 17.6794 35.4654C17.5223 35.4499 17.3584 35.4551 17.1979 35.4654C16.935 35.4862 16.6618 35.5742 16.409 35.5431C16.0163 35.5017 15.6373 35.5535 15.2548 35.5587C13.6429 35.5742 12.031 35.5949 10.4191 35.5949C10.0333 35.5949 9.64053 35.5276 9.26488 35.4499C9.08047 35.4136 8.91314 35.2841 8.75946 35.1805C8.66384 35.1184 8.67409 34.9682 8.50675 34.9475C8.49309 34.9475 8.48285 34.8957 8.48285 34.8646C8.48285 34.7247 8.46919 34.5797 8.49309 34.445C8.6092 33.8338 8.54432 33.2278 8.53066 32.6166C8.517 32.0416 8.49651 31.4667 8.48285 30.8918C8.48285 30.8503 8.49309 30.7985 8.52383 30.7778C8.71507 30.6224 8.91655 30.4774 9.11121 30.322C9.13853 30.3013 9.15902 30.265 9.16585 30.2288C9.19317 30.0941 9.22732 29.9542 9.23756 29.8144C9.25805 29.514 9.27171 29.2083 9.27513 28.9079C9.27854 28.6645 9.25464 28.4159 9.26147 28.1724C9.26488 28.0844 9.23415 28.0429 9.15219 27.9911C8.86533 27.8047 8.60237 27.5819 8.57847 27.2711C8.53066 26.6133 8.49651 25.9555 8.49651 25.2977C8.49651 25.0801 8.53407 24.8211 8.90631 24.759C9.04974 24.7383 9.12145 24.6554 9.15902 24.557C9.2 24.443 9.22732 24.3187 9.24781 24.1996C9.26488 24.096 9.25122 23.9872 9.27854 23.8836C9.30586 23.7748 9.37416 23.6712 9.16926 23.6298C9.14536 23.6246 9.12487 23.5936 9.10779 23.5677C8.88923 23.2517 8.71507 22.9254 8.81752 22.5524C8.83459 22.4955 8.83118 22.4281 8.83118 22.3711C8.82776 22.0759 8.82776 21.7807 8.82093 21.4854C8.81069 21.0348 8.73897 20.5893 8.53407 20.1698C8.31551 19.7243 8.28478 19.2633 8.35308 18.7971C8.49651 17.813 8.61262 16.8237 8.61945 15.8292C8.61945 15.6738 8.64677 15.5132 8.6775 15.3578C8.72873 15.104 8.75946 14.8554 8.66384 14.6016C8.58871 14.4048 8.54773 14.1976 8.517 13.9956C8.49651 13.8609 8.4726 13.7159 8.52383 13.5967C8.65018 13.317 8.90289 13.1564 9.30586 13.1513C9.64736 13.1461 9.98886 13.115 10.3269 13.0684C10.7333 13.0114 11.1363 12.9907 11.5461 13.0477C11.7442 13.0736 11.9422 13.1098 12.1437 13.1202C13.4858 13.1875 14.8313 13.1875 16.1632 13.374C16.7881 13.4621 17.4438 13.4103 18.0858 13.4206C18.4068 13.4258 18.7039 13.3999 19.0113 13.2756C19.585 13.0373 20.1929 12.8457 20.7871 12.6385C20.8554 12.6126 20.9339 12.597 21.0056 12.597C21.9106 12.5919 22.8156 12.5867 23.7206 12.597C24.0791 12.6022 24.4343 12.6747 24.5845 12.9803C24.6631 13.1409 24.7724 13.172 24.9534 13.1513C24.9909 13.1461 25.0285 13.1513 25.0661 13.1513C25.2744 13.1357 25.4349 13.2082 25.5749 13.3274C25.6671 13.4051 25.7491 13.4879 25.8515 13.5501C25.913 13.5915 26.0018 13.6278 26.0769 13.6278C26.3911 13.6174 26.7053 13.5864 27.0194 13.5708C27.1765 13.5605 27.2312 13.4879 27.2619 13.3792C27.2961 13.2549 27.3439 13.1357 27.3951 13.0166C27.4907 12.7887 27.7059 12.6851 27.9961 12.6799C28.1874 12.6747 28.3752 12.6799 28.5664 12.6903C28.8533 12.7006 29.1401 12.7214 29.4304 12.7369C29.5602 12.7421 29.69 12.7473 29.8197 12.7576C30.2808 12.7939 30.7418 12.8249 31.1994 12.8716C31.5204 12.9078 31.8414 12.9596 32.1556 13.0321C32.4151 13.0943 32.6678 13.1823 32.9103 13.2756C33.2347 13.4051 33.5387 13.3585 33.8494 13.2497C34.0065 13.1979 34.1807 13.1616 34.3514 13.1461C34.5768 13.1305 34.809 13.1305 35.0378 13.1409C35.615 13.1564 36.2024 13.1409 36.7112 13.4103C36.8717 13.4931 36.9912 13.6278 37.1415 13.721C37.5137 13.9541 37.623 14.2545 37.5035 14.6119C37.3805 14.9849 37.3464 15.3578 37.3942 15.7463C37.4625 16.3212 37.4727 16.8962 37.5171 17.4711C37.582 18.3154 37.6093 19.1545 37.5274 19.9988C37.4864 20.4029 37.3327 20.7447 36.8751 20.9571C36.858 20.9674 36.841 20.983 36.8239 20.9882C36.677 21.0503 36.6463 21.1436 36.7009 21.2627C36.8 21.4802 36.7453 21.6771 36.6122 21.8687C36.5643 21.936 36.52 22.0086 36.4892 22.0811C36.4653 22.1432 36.4551 22.2106 36.4551 22.2727C36.4619 22.4747 36.6053 22.6405 36.7522 22.7803C36.9639 22.9823 37.08 23.1999 37.0971 23.4589C37.1107 23.6298 37.1483 23.8007 37.1688 23.9665C37.2132 24.3135 37.2644 24.6657 37.2917 25.0128C37.3122 25.2821 37.203 25.5308 37.0015 25.7535C36.9229 25.8415 36.8512 25.9348 36.7727 26.028C36.899 26.142 37.0527 26.2197 37.1654 26.3388C37.3635 26.5563 37.5171 26.7791 37.5547 27.0381C37.6059 27.411 37.6332 27.7891 37.6367 28.1672C37.6401 28.7888 37.5991 29.4155 37.6093 30.0371C37.5888 30.379 37.6606 30.7053 37.7015 31.0316ZM13.7214 16.8185C13.7146 16.8289 13.7112 16.834 13.7044 16.8444C13.619 16.8548 13.5268 16.8599 13.4482 16.8858C12.9565 17.0516 12.4647 17.2173 11.9764 17.3934C11.9354 17.409 11.8842 17.4815 11.8978 17.5126C11.9593 17.6421 12.0105 17.7819 12.1232 17.8803C12.3862 18.1134 12.656 18.3465 12.9667 18.5382C13.4141 18.8075 13.7522 19.1545 14.1176 19.486C14.2815 19.6311 14.442 19.7761 14.6162 19.916C14.8279 20.0869 15.0635 20.2371 15.265 20.4132C15.6919 20.7965 16.071 21.2109 16.5832 21.5268C16.631 21.5579 16.6618 21.5994 16.7027 21.6356C17.0442 21.9568 17.3687 22.2831 17.7307 22.5887C18.5298 23.2621 19.3459 23.9199 20.1519 24.5881C20.9681 25.2666 21.7877 25.94 22.6004 26.6237C23.239 27.1572 23.864 27.7011 24.4992 28.2346C25.2129 28.8406 25.9301 29.4363 26.6472 30.0423C26.8931 30.2495 27.1321 30.4567 27.3712 30.669C27.8151 31.0627 28.2557 31.4563 28.703 31.8448C28.7474 31.8863 28.8157 31.9277 28.8772 31.9277C29.4133 31.9536 29.9529 31.9743 30.4925 31.995C30.7691 32.0054 31.0525 31.9795 31.3223 32.0157C31.5341 32.0468 31.7287 32.0313 31.9268 32.0054C32.1658 31.9743 32.3434 31.8863 32.4151 31.6842C32.4356 31.6273 32.4766 31.5703 32.5142 31.5185C32.7976 31.1456 33.0196 30.7519 33.1733 30.3323C33.2484 30.1355 33.3474 29.9439 33.4157 29.747C33.6104 29.1825 33.7982 28.6127 33.9826 28.0429C34.0646 27.7943 33.9382 27.5871 33.706 27.4524C33.2518 27.1934 32.8352 26.8827 32.2922 26.7273C32.1488 26.6858 32.0156 26.6237 31.8892 26.5563C31.4658 26.3181 31.0525 26.0643 30.6223 25.8312C29.2631 25.0905 27.8254 24.4534 26.514 23.6557C25.4144 22.9875 24.1918 22.4644 23.1024 21.7755C22.4843 21.3818 21.7843 21.0762 21.1217 20.7292C20.8383 20.579 20.5583 20.4288 20.2782 20.2785C19.6499 19.947 19.0249 19.6104 18.3966 19.2789C18.0414 19.0924 17.676 18.9163 17.3311 18.7194C17.0306 18.5485 16.754 18.3465 16.4603 18.1652C16.1802 17.9943 15.89 17.8234 15.6031 17.6628C15.224 17.4504 14.8518 17.2277 14.4557 17.036C14.2269 16.9376 13.9639 16.891 13.7214 16.8185ZM14.8655 32.2592C16.1837 32.197 16.088 32.2022 17.3857 31.8345C17.5599 31.7827 17.7375 31.7257 17.9185 31.7101C18.4034 31.6635 18.8439 31.5237 19.2708 31.3424C19.4757 31.2543 19.4791 31.2595 19.3152 31.1352C18.0995 30.1925 16.8769 29.2498 15.6646 28.3071C15.2889 28.0118 14.9406 27.7011 14.5615 27.4058C14.4147 27.2919 14.2269 27.2142 14.0527 27.1261C13.981 27.0899 13.9195 27.1054 13.882 27.1675C13.7966 27.3126 13.6975 27.4576 13.6224 27.6078C13.199 28.4728 12.7789 29.3378 12.3623 30.208C12.2974 30.3427 12.2428 30.4826 12.1813 30.6172C12.1027 30.7882 12.171 30.9021 12.3486 31.0212C12.8745 31.3838 13.3834 31.7619 13.9024 32.1297C13.9366 32.1556 13.981 32.1763 14.0254 32.1867C14.3122 32.2696 14.6059 32.3006 14.8655 32.2592ZM31.9814 18.2585C31.9678 18.2533 31.9541 18.2481 31.9439 18.2481C31.9439 18.217 31.9439 18.1859 31.9439 18.1549C31.9336 17.9788 31.879 17.8285 31.6638 17.7301C31.3599 17.5851 31.073 17.4142 30.7759 17.264C30.6803 17.2173 30.571 17.1759 30.4652 17.1552C30.0759 17.0775 29.6865 17.1137 29.2972 17.1707C28.242 17.3209 27.2414 17.668 26.1589 17.7198C26.0837 17.7249 26.0052 17.7819 25.9437 17.8234C25.8549 17.8855 25.8583 17.9425 25.9676 18.0098C26.9409 18.6159 27.9108 19.2271 28.884 19.8331C29.4065 20.1594 29.9324 20.4754 30.4618 20.7913C30.6701 20.9156 30.8955 20.9726 31.1652 20.9208C31.3633 20.8846 31.4282 20.8276 31.4316 20.6463C31.4384 20.4443 31.4248 20.2423 31.4248 20.0403C31.4248 19.9937 31.435 19.947 31.4487 19.9004C31.4692 19.8279 31.5033 19.7554 31.5204 19.6829C31.5375 19.6052 31.5341 19.5275 31.5545 19.4498C31.6228 19.2115 31.6946 18.9733 31.7697 18.735C31.7902 18.6728 31.8141 18.6107 31.8414 18.5485C31.8824 18.4553 31.9336 18.3569 31.9814 18.2585Z" fill="#223252"/>
</svg>
