<svg width="46" height="49" viewBox="0 0 46 49" fill="none" xmlns="http://www.w3.org/2000/svg">
<g clip-path="url(#clip0)">
<path d="M0.0129395 49.0144C0.0129395 32.6821 0.0129395 16.3467 0.0129395 0.0143747C15.3453 0.0143747 30.6806 0.0143747 46.013 0.0143747C46.013 16.3436 46.013 32.6729 46.013 49.0144C30.6662 49.0144 15.3396 49.0144 0.0129395 49.0144ZM7.81282 20.8976C7.82144 20.9068 7.82719 20.9129 7.83582 20.9221C8.22394 20.9221 8.60919 20.9221 8.98582 20.9221C8.98582 23.3323 8.98582 25.7271 8.98582 28.1373C8.59194 28.1373 8.21532 28.1373 7.83582 28.1373C7.82719 28.1465 7.82144 28.1526 7.81282 28.1618C7.81282 28.7743 7.81282 29.3838 7.81282 29.9963C7.82144 30.0055 7.82719 30.0116 7.83582 30.0208C8.21819 30.0208 8.59769 30.0208 8.99157 30.0208C8.99157 30.5904 8.99157 31.1355 8.99157 31.6806C9.00019 31.6898 9.00594 31.696 9.01457 31.7051C9.02607 31.7603 9.03757 31.8185 9.04619 31.8736C9.05194 31.9287 9.03469 32.0175 9.06057 32.0328C9.15544 32.091 9.12382 32.1798 9.13532 32.2595C9.13819 32.2686 9.13819 32.2748 9.14107 32.284C9.14394 32.2778 9.14969 32.2686 9.15257 32.2625C9.17557 32.3023 9.19857 32.3452 9.21869 32.385C9.22732 32.3942 9.23307 32.4003 9.24169 32.4095C9.25319 32.4524 9.26469 32.4953 9.27619 32.5381C9.27907 32.5473 9.27907 32.5535 9.28194 32.5626C9.28482 32.5565 9.29057 32.5473 9.29344 32.5412C9.31644 32.5718 9.33944 32.6025 9.35957 32.6331C9.36819 32.6423 9.37394 32.6484 9.38257 32.6576C9.40269 32.6913 9.42569 32.725 9.44582 32.7556C9.45444 32.7648 9.46019 32.7709 9.46882 32.7801C9.50907 32.823 9.54932 32.8658 9.58957 32.9087C9.59819 32.9179 9.60394 32.924 9.61257 32.9332C9.66144 32.9853 9.71319 33.0404 9.76207 33.0925C9.77069 33.1016 9.77644 33.1078 9.78507 33.117C9.80519 33.1292 9.82819 33.1415 9.84832 33.1537C9.88569 33.1813 9.92019 33.2119 9.95757 33.2395C9.97769 33.2517 10.0007 33.264 10.0208 33.2762C10.0294 33.2854 10.0352 33.2915 10.0438 33.3007C10.1071 33.3313 10.1703 33.3681 10.2364 33.3895C10.4664 33.4661 10.6993 33.6008 10.9293 33.6008C18.9822 33.6131 27.0351 33.61 35.088 33.607C35.1886 33.607 35.2921 33.5763 35.387 33.5396C35.5825 33.4661 35.7751 33.3803 35.9706 33.3007C35.9792 33.2915 35.985 33.2854 35.9936 33.2762C36.0252 33.264 36.054 33.2517 36.0856 33.2395C36.0942 33.2364 36.1 33.2364 36.1086 33.2333C36.1028 33.2303 36.0942 33.2241 36.0885 33.2211C36.1086 33.2088 36.1258 33.1935 36.146 33.1813C36.1546 33.1721 36.1603 33.166 36.169 33.1568C36.1891 33.1445 36.2121 33.1323 36.2322 33.12C36.2408 33.1108 36.2466 33.1047 36.2552 33.0955C36.3041 33.0435 36.3558 32.9883 36.4047 32.9363C36.4133 32.9271 36.4191 32.921 36.4277 32.9118C36.468 32.8689 36.5082 32.826 36.5485 32.7831C36.5571 32.774 36.5628 32.7678 36.5715 32.7586C36.5916 32.725 36.6146 32.6913 36.6347 32.6606C36.6433 32.6515 36.6491 32.6453 36.6577 32.6361C36.6807 32.6055 36.7037 32.5749 36.7238 32.5443C36.7267 32.5504 36.7325 32.5596 36.7353 32.5657C36.7382 32.5565 36.7382 32.5504 36.7411 32.5412C36.7526 32.4983 36.7641 32.4555 36.7756 32.4126C36.7842 32.4034 36.79 32.3973 36.7986 32.3881C36.8216 32.3483 36.8446 32.3054 36.8647 32.2656C36.8676 32.2717 36.8733 32.2809 36.8762 32.287C36.8791 32.2778 36.8791 32.2717 36.882 32.2625C36.9222 32.0757 36.9625 31.892 37.0027 31.7051C37.0113 31.696 37.0171 31.6898 37.0257 31.6806C37.0257 31.1325 37.0257 30.5843 37.0257 30.0208C37.4282 30.0208 37.8048 30.0208 38.1815 30.0208C38.1901 30.0116 38.1958 30.0055 38.2045 29.9963C38.2045 29.3838 38.2045 28.7743 38.2045 28.1618C38.1958 28.1526 38.1901 28.1465 38.1815 28.1373C37.7991 28.1373 37.4196 28.1373 37.0286 28.1373C37.0286 25.721 37.0286 23.3292 37.0286 20.9221C37.4081 20.9221 37.7962 20.9221 38.1815 20.9221C38.1901 20.9129 38.1958 20.9068 38.2045 20.8976C38.2045 20.2851 38.2045 19.6756 38.2045 19.0631C38.1958 19.0539 38.1901 19.0478 38.1815 19.0386C37.8336 19.0386 37.4857 19.0386 37.1378 19.0325C37.089 19.0325 37.0171 19.0693 37.02 18.9468C37.0286 18.4231 37.0257 17.8994 37.0257 17.3788C37.0171 17.3696 37.0113 17.3634 37.0027 17.3543C36.9912 17.2991 36.9797 17.2409 36.9711 17.1828C36.9625 17.1276 36.9826 17.0388 36.9567 17.0235C36.8647 16.9653 36.8935 16.8765 36.882 16.7938C36.8733 16.7846 36.8676 16.7785 36.859 16.7693C36.8388 16.7356 36.8158 16.7019 36.7957 16.6713C36.7871 16.6621 36.7813 16.656 36.7727 16.6468C36.7037 16.5335 36.6347 16.4171 36.5657 16.3038C36.5571 16.2946 36.5513 16.2885 36.5427 16.2793C36.5025 16.2364 36.4622 16.1936 36.422 16.1507C36.4133 16.1415 36.4076 16.1354 36.399 16.1262C36.3673 16.0925 36.3357 16.0588 36.307 16.0282C36.2983 16.019 36.2926 16.0129 36.284 16.0037C36.2725 15.9914 36.261 15.9792 36.2495 15.9669C36.2408 15.9578 36.2351 15.9516 36.2265 15.9424C36.215 15.9302 36.2035 15.9179 36.192 15.9057C36.1833 15.8965 36.1776 15.8904 36.169 15.8812C36.1488 15.8689 36.1258 15.8567 36.1057 15.8444C36.0971 15.8353 36.0913 15.8291 36.0827 15.8199C36.0626 15.8077 36.0396 15.7954 36.0195 15.7832C36.0108 15.774 36.0051 15.7679 35.9965 15.7587C35.9447 15.7373 35.8901 15.7219 35.8412 15.6944C35.6026 15.5719 35.3582 15.4494 35.0851 15.4494C27.0293 15.4494 18.9764 15.4463 10.9207 15.4524C10.7539 15.4524 10.5843 15.5229 10.4204 15.578C10.2796 15.6239 10.1444 15.6974 10.0093 15.7556C10.0007 15.7648 9.99494 15.7709 9.98632 15.7801C9.96619 15.7924 9.94319 15.8046 9.92307 15.8169C9.91444 15.8261 9.90869 15.8322 9.90007 15.8414C9.87994 15.8536 9.85694 15.8659 9.83682 15.8781C9.82819 15.8873 9.82244 15.8934 9.81382 15.9026C9.80232 15.9149 9.79082 15.9271 9.77932 15.9394C9.77069 15.9486 9.76494 15.9547 9.75632 15.9639C9.74482 15.9761 9.73332 15.9884 9.72182 16.0006C9.71319 16.0098 9.70744 16.0159 9.69882 16.0251C9.68732 16.0374 9.67582 16.0496 9.66432 16.0619C9.65569 16.0711 9.64994 16.0772 9.64132 16.0864C9.62982 16.0986 9.61832 16.1109 9.60682 16.1231C9.59819 16.1323 9.59244 16.1384 9.58382 16.1476C9.54357 16.1905 9.50332 16.2334 9.46307 16.2763C9.45444 16.2854 9.44869 16.2916 9.44007 16.3008C9.37107 16.4141 9.30207 16.5304 9.23307 16.6438C9.22444 16.6529 9.21869 16.6591 9.21007 16.6683C9.18994 16.7019 9.16694 16.7356 9.14682 16.7663C9.13819 16.7754 9.13244 16.7816 9.12382 16.7908C9.09219 16.8489 9.17844 16.9561 9.05769 16.9745C9.05482 16.9684 9.04907 16.9592 9.04619 16.9531C9.04332 16.9623 9.04332 16.9684 9.04044 16.9776C9.02894 17.1031 9.01744 17.2256 9.00594 17.3512C8.99732 17.3604 8.99157 17.3665 8.98294 17.3757C8.98294 17.8749 8.96857 18.371 8.98582 18.8671C8.99157 19.0264 8.94269 19.0356 8.82769 19.0356C8.49419 19.0325 8.16069 19.0356 7.82719 19.0356C7.81857 19.0448 7.81282 19.0509 7.80419 19.0601C7.81282 19.6756 7.81282 20.2881 7.81282 20.8976Z" fill="#E59A37"/>
<path d="M0.0129395 49.0144C15.3396 49.0144 30.6662 49.0144 46.0129 49.0144C46.0129 32.6729 46.0129 16.3436 46.0129 0.0143747C46.0216 0.0204997 46.0388 0.0235622 46.0417 0.0296872C46.0446 0.0694997 46.0417 0.112375 46.0417 0.152187C46.0417 16.4477 46.0417 32.7433 46.0417 49.045C45.9669 49.045 45.8922 49.045 45.8203 49.045C30.5943 49.045 15.3683 49.045 0.142314 49.045C0.0991895 49.045 0.0560645 49.0236 0.0129395 49.0144Z" fill="#FEFEFE"/>
<path d="M9.07071 16.9816C9.19433 16.9632 9.10808 16.856 9.13683 16.7978C9.14546 16.7886 9.15121 16.7825 9.15983 16.7733C9.17996 16.7396 9.20296 16.7059 9.22308 16.6753C9.23171 16.6661 9.23746 16.66 9.24608 16.6508C9.31508 16.5375 9.38408 16.4211 9.45308 16.3078C9.46171 16.2986 9.46746 16.2925 9.47608 16.2833C9.51633 16.2404 9.55658 16.1976 9.59683 16.1547C9.60546 16.1455 9.61121 16.1394 9.61983 16.1302C9.63133 16.1179 9.64283 16.1057 9.65433 16.0934C9.66296 16.0843 9.66871 16.0781 9.67733 16.0689C9.68883 16.0567 9.70033 16.0444 9.71183 16.0322C9.72046 16.023 9.72621 16.0169 9.73483 16.0077C9.74633 15.9954 9.75783 15.9832 9.76933 15.9709C9.77796 15.9618 9.78371 15.9556 9.79233 15.9464C9.80383 15.9342 9.81533 15.9219 9.82683 15.9097C9.83546 15.9005 9.84121 15.8944 9.84983 15.8852C9.86996 15.8729 9.89296 15.8607 9.91308 15.8484C9.92171 15.8393 9.92746 15.8331 9.93608 15.8239C9.95621 15.8117 9.97921 15.7994 9.99933 15.7872C10.008 15.778 10.0137 15.7719 10.0223 15.7627C10.1603 15.7014 10.2926 15.631 10.4335 15.5851C10.5973 15.5299 10.767 15.4595 10.9337 15.4595C18.9895 15.4534 27.0423 15.4534 35.0981 15.4564C35.3712 15.4564 35.6127 15.5789 35.8542 15.7014C35.9031 15.7259 35.9577 15.7443 36.0094 15.7658C36.0181 15.7749 36.0238 15.7811 36.0324 15.7903C36.0526 15.8025 36.0756 15.8148 36.0957 15.827C36.1043 15.8362 36.1101 15.8423 36.1187 15.8515C36.1388 15.8638 36.1618 15.876 36.1819 15.8883C36.1906 15.8974 36.1963 15.9036 36.2049 15.9128C36.2164 15.925 36.2279 15.9373 36.2394 15.9495C36.2481 15.9587 36.2538 15.9648 36.2624 15.974C36.2739 15.9863 36.2854 15.9985 36.2969 16.0108C36.3056 16.0199 36.3113 16.0261 36.3199 16.0353C36.3516 16.0689 36.3832 16.1026 36.4119 16.1333C36.4206 16.1424 36.4263 16.1486 36.4349 16.1578C36.4752 16.2006 36.5154 16.2435 36.5557 16.2864C36.5643 16.2956 36.5701 16.3017 36.5787 16.3109C36.6477 16.4242 36.7167 16.5406 36.7857 16.6539C36.7943 16.6631 36.8001 16.6692 36.8087 16.6784C36.8288 16.7121 36.8518 16.7458 36.8719 16.7764C36.8806 16.7856 36.8863 16.7917 36.8949 16.8009C36.9064 16.8805 36.8748 16.9693 36.9697 17.0306C36.9956 17.0459 36.9783 17.1347 36.9841 17.1898C36.9927 17.248 37.0042 17.3031 37.0157 17.3613C37.0243 17.3705 37.0301 17.3766 37.0387 17.3858C37.0387 17.9095 37.0416 18.4332 37.0329 18.9538C37.0301 19.0794 37.1019 19.0396 37.1508 19.0396C37.4987 19.0426 37.8466 19.0426 38.1944 19.0457C38.2031 19.0549 38.2088 19.061 38.2174 19.0702C38.2174 19.6827 38.2174 20.2921 38.2174 20.9046C38.2088 20.9138 38.2031 20.9199 38.1944 20.9291C37.8063 20.9291 37.4211 20.9291 37.0416 20.9291C37.0416 23.3362 37.0416 25.7281 37.0416 28.1444C37.4326 28.1444 37.8149 28.1444 38.1944 28.1444C38.2031 28.1536 38.2088 28.1597 38.2174 28.1689C38.2174 28.7814 38.2174 29.3908 38.2174 30.0033C38.2088 30.0125 38.2031 30.0186 38.1944 30.0278C37.8178 30.0278 37.4383 30.0278 37.0387 30.0278C37.0387 30.5913 37.0387 31.1395 37.0387 31.6877C37.0301 31.6969 37.0243 31.703 37.0157 31.7122C36.9754 31.899 36.9352 32.0827 36.8949 32.2696C36.8892 32.2665 36.8834 32.2696 36.8748 32.2726C36.8518 32.3124 36.8288 32.3553 36.8087 32.3951C36.8001 32.4043 36.7943 32.4104 36.7857 32.4196C36.7742 32.4625 36.7627 32.5054 36.7512 32.5482C36.7454 32.5452 36.7397 32.5482 36.7311 32.5513C36.7081 32.5819 36.6851 32.6126 36.6649 32.6432C36.6563 32.6524 36.6506 32.6585 36.6419 32.6677C36.6218 32.7014 36.5988 32.7351 36.5787 32.7657C36.5701 32.7749 36.5643 32.781 36.5557 32.7902C36.5154 32.833 36.4752 32.8759 36.4349 32.9188C36.4263 32.928 36.4206 32.9341 36.4119 32.9433C36.3631 32.9954 36.3113 33.0505 36.2624 33.1026C36.2538 33.1117 36.2481 33.1179 36.2394 33.127C36.2193 33.1393 36.1963 33.1516 36.1762 33.1638C36.1676 33.173 36.1618 33.1791 36.1532 33.1883C36.1331 33.2005 36.1158 33.2159 36.0957 33.2281C36.0928 33.2342 36.0928 33.2404 36.0928 33.2495C36.0612 33.2618 36.0324 33.2741 36.0008 33.2863C35.9922 33.2955 35.9864 33.3016 35.9778 33.3108C35.7823 33.3904 35.5897 33.4762 35.3942 33.5497C35.2993 33.5864 35.1958 33.617 35.0952 33.617C27.0423 33.6201 18.9895 33.6232 10.9366 33.6109C10.7037 33.6109 10.4737 33.4762 10.2437 33.3996C10.1776 33.3782 10.1143 33.3414 10.0511 33.3108C10.0425 33.3016 10.0367 33.2955 10.0281 33.2863C10.008 33.2741 9.98496 33.2618 9.96483 33.2495C9.92746 33.222 9.89296 33.1914 9.85558 33.1638C9.83546 33.1516 9.81246 33.1393 9.79233 33.127C9.78371 33.1179 9.77796 33.1117 9.76933 33.1026C9.72046 33.0505 9.66871 32.9954 9.61983 32.9433C9.61121 32.9341 9.60546 32.928 9.59683 32.9188C9.55658 32.8759 9.51633 32.833 9.47608 32.7902C9.46746 32.781 9.46171 32.7749 9.45308 32.7657C9.43296 32.732 9.40996 32.6983 9.38983 32.6677C9.38121 32.6585 9.37546 32.6524 9.36683 32.6432C9.34383 32.6126 9.32083 32.5819 9.30071 32.5513C9.29496 32.5482 9.28921 32.5482 9.28058 32.5482C9.26908 32.5054 9.25758 32.4625 9.24608 32.4196C9.23746 32.4104 9.23171 32.4043 9.22308 32.3951C9.20008 32.3553 9.17708 32.3124 9.15696 32.2726C9.15121 32.2696 9.14546 32.2696 9.13683 32.2696C9.12533 32.1899 9.15408 32.1011 9.06208 32.0429C9.03621 32.0276 9.05346 31.9388 9.04771 31.8837C9.03908 31.8255 9.02758 31.7704 9.01608 31.7152C9.00746 31.7061 9.00171 31.6999 8.99308 31.6907C8.99308 31.1456 8.99308 30.6005 8.99308 30.0309C8.59921 30.0309 8.21683 30.0309 7.83733 30.0309C7.82871 30.0217 7.82296 30.0156 7.81433 30.0064C7.81433 29.3939 7.81433 28.7844 7.81433 28.1719C7.82296 28.1627 7.82871 28.1566 7.83733 28.1474C8.21396 28.1474 8.59346 28.1474 8.98733 28.1474C8.98733 25.7372 8.98733 23.3424 8.98733 20.9322C8.61358 20.9322 8.22546 20.9322 7.83733 20.9322C7.82871 20.923 7.82296 20.9169 7.81433 20.9077C7.81433 20.2952 7.81433 19.6857 7.81433 19.0733C7.82296 19.0641 7.82871 19.0579 7.83733 19.0488C8.17083 19.0488 8.50433 19.0426 8.83783 19.0488C8.95283 19.0518 9.00171 19.0396 8.99596 18.8803C8.97871 18.3842 8.99021 17.885 8.99308 17.3889C9.00171 17.3797 9.00746 17.3736 9.01608 17.3644C9.02758 17.2388 9.03908 17.1163 9.05058 16.9908H9.05921L9.07071 16.9816ZM11.0257 17.297C11.0171 17.3062 11.0113 17.3123 11.0027 17.3215C10.9826 17.4011 10.9452 17.4808 10.9452 17.5604C10.9423 22.1786 10.9423 26.7938 10.9452 31.4121C10.9452 31.5223 10.9826 31.6326 11.0027 31.7459C11.0113 31.7551 11.0171 31.7612 11.0257 31.7704C11.0803 31.7826 11.135 31.8041 11.1896 31.8041C19.0728 31.8041 26.9561 31.8041 34.8364 31.8041C34.8911 31.8041 34.9457 31.7826 35.0003 31.7704C35.0089 31.7612 35.0147 31.7551 35.0233 31.7459C35.0434 31.6356 35.0808 31.5254 35.0808 31.4151C35.0837 26.8214 35.0837 22.2246 35.0837 17.6308C35.0837 17.5604 35.0808 17.4869 35.0808 17.4164C35.0722 17.4073 35.0664 17.4011 35.0578 17.3919C35.0463 17.3705 35.0348 17.346 35.0233 17.3246C35.0147 17.3154 35.0089 17.3093 35.0003 17.3001C34.9457 17.2878 34.8911 17.2664 34.8364 17.2664C26.9532 17.2664 19.07 17.2664 11.1896 17.2664C11.135 17.2633 11.0803 17.2848 11.0257 17.297Z" fill="#142B4D"/>
<path d="M9.85559 33.1485C9.89297 33.1761 9.92747 33.2067 9.96484 33.2342C9.92747 33.2067 9.89297 33.1761 9.85559 33.1485Z" fill="#4E4A47"/>
<path d="M9.84941 15.8882C9.84097 15.8974 9.83535 15.9036 9.8269 15.9127C9.83535 15.9036 9.84097 15.8944 9.84941 15.8882Z" fill="#4E4A47"/>
<path d="M36.2016 15.9127C36.1931 15.9036 36.1875 15.8974 36.1791 15.8882C36.1875 15.8944 36.196 15.9036 36.2016 15.9127Z" fill="#4E4A47"/>
<path d="M9.7918 15.9495C9.78336 15.9583 9.77773 15.9642 9.76929 15.973C9.77773 15.9642 9.78336 15.9554 9.7918 15.9495Z" fill="#4E4A47"/>
<path d="M36.2591 15.973C36.2506 15.9642 36.245 15.9583 36.2366 15.9495C36.245 15.9554 36.2535 15.9642 36.2591 15.973Z" fill="#4E4A47"/>
<path d="M9.7343 16.0107C9.72586 16.0196 9.72023 16.0254 9.71179 16.0342C9.72023 16.0254 9.72586 16.0166 9.7343 16.0107Z" fill="#4E4A47"/>
<path d="M36.3166 16.0342C36.3081 16.0254 36.3025 16.0196 36.2941 16.0107C36.3025 16.0166 36.3109 16.0254 36.3166 16.0342Z" fill="#4E4A47"/>
<path d="M9.67681 16.072C9.66837 16.0812 9.66274 16.0873 9.6543 16.0965C9.66274 16.0873 9.66837 16.0781 9.67681 16.072Z" fill="#4E4A47"/>
<path d="M9.61931 16.1332C9.61087 16.1421 9.60524 16.1479 9.5968 16.1567C9.60524 16.1479 9.61087 16.1391 9.61931 16.1332Z" fill="#4E4A47"/>
<path d="M36.4316 16.1567C36.4231 16.1479 36.4175 16.1421 36.4091 16.1332C36.4175 16.1391 36.4259 16.1479 36.4316 16.1567Z" fill="#4E4A47"/>
<path d="M9.47563 16.2864C9.46719 16.2956 9.46157 16.3017 9.45312 16.3109C9.46157 16.3017 9.46719 16.2925 9.47563 16.2864Z" fill="#4E4A47"/>
<path d="M36.5752 16.3109C36.5668 16.3017 36.5612 16.2956 36.5527 16.2864C36.5612 16.2925 36.5696 16.3017 36.5752 16.3109Z" fill="#4E4A47"/>
<path d="M9.24553 16.6539C9.23709 16.6631 9.23146 16.6692 9.22302 16.6784C9.23146 16.6692 9.23709 16.66 9.24553 16.6539Z" fill="#4E4A47"/>
<path d="M36.8053 16.6784C36.7969 16.6692 36.7913 16.6631 36.7828 16.6539C36.7913 16.66 36.7997 16.6692 36.8053 16.6784Z" fill="#4E4A47"/>
<path d="M9.15935 16.7764C9.15091 16.7854 9.14528 16.7914 9.13684 16.8004C9.14528 16.7914 9.15091 16.7824 9.15935 16.7764Z" fill="#4E4A47"/>
<path d="M36.8915 16.8004C36.8831 16.7914 36.8775 16.7854 36.869 16.7764C36.8775 16.7824 36.8859 16.7914 36.8915 16.8004Z" fill="#4E4A47"/>
<path d="M9.07035 16.9816L9.06191 16.9846H9.05347C9.05628 16.9754 9.05628 16.9693 9.05909 16.9601C9.06191 16.9693 9.06472 16.9754 9.07035 16.9816Z" fill="#4E4A47"/>
<path d="M9.01555 17.3582C9.00711 17.3672 9.00148 17.3732 8.99304 17.3822C9.00148 17.3732 9.00711 17.3642 9.01555 17.3582Z" fill="#4E4A47"/>
<path d="M37.0353 17.3822C37.0269 17.3732 37.0213 17.3672 37.0128 17.3582C37.0213 17.3642 37.0297 17.3732 37.0353 17.3822Z" fill="#4E4A47"/>
<path d="M7.83684 19.0426C7.8284 19.0516 7.82277 19.0576 7.81433 19.0666C7.82277 19.0576 7.8284 19.0486 7.83684 19.0426Z" fill="#4E4A47"/>
<path d="M38.2142 19.0666C38.2057 19.0576 38.2001 19.0516 38.1917 19.0426C38.2001 19.0486 38.2085 19.0576 38.2142 19.0666Z" fill="#4E4A47"/>
<path d="M7.81433 20.8985C7.82277 20.9075 7.8284 20.9135 7.83684 20.9225C7.8284 20.9165 7.82277 20.9075 7.81433 20.8985Z" fill="#4E4A47"/>
<path d="M38.1945 20.9225C38.2029 20.9135 38.2085 20.9075 38.217 20.8985C38.2085 20.9075 38.2001 20.9165 38.1945 20.9225Z" fill="#4E4A47"/>
<path d="M10.0218 15.7657C10.0133 15.7747 10.0077 15.7807 9.99927 15.7897C10.0077 15.7807 10.0133 15.7717 10.0218 15.7657Z" fill="#4E4A47"/>
<path d="M36.0291 15.7897C36.0207 15.7807 36.015 15.7747 36.0066 15.7657C36.015 15.7717 36.0235 15.7807 36.0291 15.7897Z" fill="#4E4A47"/>
<path d="M7.83684 28.1382C7.8284 28.1472 7.82277 28.1532 7.81433 28.1622C7.82277 28.1532 7.8284 28.1442 7.83684 28.1382Z" fill="#4E4A47"/>
<path d="M38.2142 28.1622C38.2057 28.1532 38.2001 28.1472 38.1917 28.1382C38.2001 28.1442 38.2085 28.1532 38.2142 28.1622Z" fill="#4E4A47"/>
<path d="M7.81433 29.9941C7.82277 30.0031 7.8284 30.0091 7.83684 30.0181C7.8284 30.0121 7.82277 30.0031 7.81433 29.9941Z" fill="#4E4A47"/>
<path d="M38.1945 30.0181C38.2029 30.0091 38.2085 30.0031 38.217 29.9941C38.2085 30.0031 38.2001 30.0121 38.1945 30.0181Z" fill="#4E4A47"/>
<path d="M8.99304 31.6785C9.00148 31.6875 9.00711 31.6935 9.01555 31.7025C9.00711 31.6965 9.00148 31.6875 8.99304 31.6785Z" fill="#4E4A47"/>
<path d="M37.0156 31.7025C37.0241 31.6935 37.0297 31.6875 37.0381 31.6785C37.0297 31.6875 37.0213 31.6965 37.0156 31.7025Z" fill="#4E4A47"/>
<path d="M9.13684 32.2604C9.14247 32.2573 9.1481 32.2604 9.15654 32.2634C9.15372 32.2696 9.1481 32.2788 9.14528 32.2849C9.13965 32.2757 9.13965 32.2696 9.13684 32.2604Z" fill="#4E4A47"/>
<path d="M36.8749 32.2634C36.8805 32.2604 36.8861 32.2604 36.8946 32.2604C36.8918 32.2694 36.8918 32.2754 36.8889 32.2844C36.8833 32.2754 36.8777 32.2694 36.8749 32.2634Z" fill="#4E4A47"/>
<path d="M9.22302 32.3829C9.23146 32.3919 9.23709 32.3979 9.24553 32.4069C9.23709 32.4009 9.23146 32.3919 9.22302 32.3829Z" fill="#4E4A47"/>
<path d="M36.7858 32.4069C36.7942 32.3979 36.7998 32.3919 36.8083 32.3829C36.7998 32.3919 36.7914 32.4009 36.7858 32.4069Z" fill="#4E4A47"/>
<path d="M9.28052 32.536C9.28615 32.5329 9.29177 32.536 9.30021 32.5391C9.2974 32.5452 9.29177 32.5544 9.28896 32.5605C9.28333 32.5513 9.28333 32.5452 9.28052 32.536Z" fill="#4E4A47"/>
<path d="M9.9356 15.827C9.92715 15.8362 9.92153 15.8423 9.91309 15.8515C9.92153 15.8423 9.92715 15.8331 9.9356 15.827Z" fill="#4E4A47"/>
<path d="M36.7311 32.539C36.7367 32.536 36.7423 32.536 36.7508 32.536C36.748 32.545 36.748 32.551 36.7451 32.56C36.7395 32.551 36.7339 32.545 36.7311 32.539Z" fill="#4E4A47"/>
<path d="M9.36682 32.6279C9.37526 32.6367 9.38089 32.6426 9.38933 32.6514C9.38089 32.6455 9.37526 32.6367 9.36682 32.6279Z" fill="#4E4A47"/>
<path d="M36.642 32.6514C36.6504 32.6426 36.656 32.6367 36.6645 32.6279C36.656 32.6367 36.6476 32.6455 36.642 32.6514Z" fill="#4E4A47"/>
<path d="M9.45312 32.7504C9.46157 32.7596 9.46719 32.7657 9.47563 32.7749C9.46719 32.7687 9.46157 32.7596 9.45312 32.7504Z" fill="#4E4A47"/>
<path d="M36.5558 32.7749C36.5642 32.7657 36.5699 32.7596 36.5783 32.7504C36.5699 32.7596 36.5614 32.7687 36.5558 32.7749Z" fill="#4E4A47"/>
<path d="M9.5968 32.9035C9.60524 32.9127 9.61087 32.9188 9.61931 32.928C9.61087 32.9219 9.60524 32.9127 9.5968 32.9035Z" fill="#4E4A47"/>
<path d="M36.412 32.928C36.4204 32.9188 36.4261 32.9127 36.4345 32.9035C36.4261 32.9127 36.4176 32.9219 36.412 32.928Z" fill="#4E4A47"/>
<path d="M9.76929 33.0872C9.77773 33.0961 9.78336 33.1019 9.7918 33.1107C9.78336 33.1049 9.77773 33.0961 9.76929 33.0872Z" fill="#4E4A47"/>
<path d="M36.2395 33.1107C36.2479 33.1019 36.2536 33.0961 36.262 33.0872C36.2536 33.0961 36.2451 33.1049 36.2395 33.1107Z" fill="#4E4A47"/>
<path d="M36.1153 15.8515C36.1068 15.8423 36.1012 15.8362 36.0928 15.827C36.1012 15.8331 36.1097 15.8423 36.1153 15.8515Z" fill="#4E4A47"/>
<path d="M36.1532 33.1725C36.1616 33.1635 36.1673 33.1575 36.1757 33.1485C36.1673 33.1575 36.1588 33.1665 36.1532 33.1725Z" fill="#4E4A47"/>
<path d="M36.0928 33.2338C36.09 33.2278 36.0928 33.2218 36.0957 33.2128C36.1013 33.2158 36.1097 33.2218 36.1153 33.2248C36.1069 33.2308 36.1013 33.2308 36.0928 33.2338Z" fill="#4E4A47"/>
<path d="M10.0281 33.271C10.0365 33.28 10.0421 33.286 10.0506 33.295C10.0421 33.289 10.0365 33.28 10.0281 33.271Z" fill="#4E4A47"/>
<path d="M35.9807 33.295C35.9892 33.286 35.9948 33.28 36.0032 33.271C35.9948 33.28 35.9863 33.289 35.9807 33.295Z" fill="#4E4A47"/>
<path d="M35.0032 31.7642C34.9486 31.7765 34.894 31.7979 34.8393 31.7979C26.9561 31.7979 19.0728 31.7979 11.1925 31.7979C11.1378 31.7979 11.0832 31.7765 11.0286 31.7642C11.02 31.7551 11.0142 31.7489 11.0056 31.7397C10.9855 31.6295 10.9481 31.5192 10.9481 31.4059C10.9452 26.7877 10.9452 22.1725 10.9481 17.5542C10.9481 17.4746 10.9855 17.395 11.0056 17.3154C11.0142 17.3062 11.02 17.3001 11.0286 17.2909C11.0832 17.2786 11.1378 17.2572 11.1925 17.2572C19.0757 17.2572 26.959 17.2572 34.8393 17.2572C34.894 17.2572 34.9486 17.2786 35.0032 17.2909C35.0118 17.3001 35.0176 17.3062 35.0262 17.3154C35.0377 17.3368 35.0492 17.3613 35.0607 17.3827C35.0693 17.3919 35.0751 17.3981 35.0837 17.4072C35.0837 17.4777 35.0866 17.5512 35.0866 17.6216C35.0866 22.2154 35.0866 26.8122 35.0837 31.4059C35.0837 31.5162 35.0463 31.6264 35.0262 31.7367C35.0176 31.7489 35.009 31.7581 35.0032 31.7642ZM16.172 19.2692C16.1633 19.2601 16.1576 19.2539 16.149 19.2447C16.1087 19.2325 16.0685 19.2202 16.0282 19.208C16.0196 19.1988 16.0138 19.1927 16.0052 19.1835C15.8902 19.1621 15.7781 19.1222 15.6631 19.1222C14.861 19.1161 14.056 19.1161 13.2538 19.1222C13.1388 19.1222 13.0267 19.1621 12.9117 19.1835C12.9031 19.1927 12.8973 19.1988 12.8887 19.208C12.8485 19.2202 12.8082 19.2325 12.768 19.2447C12.7593 19.2539 12.7536 19.2601 12.745 19.2692C12.7248 19.2815 12.7018 19.2937 12.6817 19.306C12.6731 19.3152 12.6673 19.3213 12.6587 19.3305C12.6472 19.3427 12.6357 19.355 12.6242 19.3672C12.6156 19.3764 12.6098 19.3826 12.6012 19.3917C12.5811 19.404 12.5581 19.4162 12.538 19.4285C12.5293 19.4377 12.5236 19.4438 12.515 19.453C12.4948 19.4867 12.4718 19.5173 12.4517 19.551C12.4431 19.5602 12.4373 19.5663 12.4287 19.5755C12.3252 19.7133 12.2275 19.8603 12.2275 20.0379C12.2246 23.2781 12.2246 26.5151 12.2217 29.7552C12.2217 29.89 12.2505 29.9451 12.3885 29.9421C12.9146 29.9329 13.4407 29.939 13.9697 29.939C14.01 29.939 14.0531 29.9329 14.102 29.9298C14.102 29.8502 14.102 29.7859 14.102 29.7216C14.102 28.3955 14.1048 27.0694 14.1048 25.7434C14.1135 25.7342 14.1192 25.7281 14.1278 25.7189C14.5476 25.7189 14.9673 25.7066 15.3871 25.7189C15.7148 25.7311 16.0138 25.6546 16.2898 25.4677C16.2985 25.4586 16.3042 25.4524 16.3128 25.4432C16.333 25.431 16.356 25.4187 16.3761 25.4065C16.3847 25.3973 16.3905 25.3912 16.3991 25.382C16.4192 25.3483 16.4422 25.3177 16.4623 25.284C16.471 25.2748 16.4767 25.2687 16.4853 25.2595C16.5055 25.2258 16.5285 25.1952 16.5486 25.1615C16.5572 25.1523 16.563 25.1462 16.5716 25.137C16.5917 25.0543 16.6147 24.9686 16.6348 24.8859C16.6435 24.8767 16.6492 24.8706 16.6578 24.8614C16.6693 24.8093 16.6895 24.7572 16.6895 24.7052C16.6923 23.1709 16.6923 21.6335 16.6895 20.0992C16.6895 20.0471 16.6693 19.9951 16.6578 19.943C16.6492 19.9338 16.6435 19.9277 16.6348 19.9185C16.6147 19.845 16.5917 19.7715 16.5716 19.698C16.563 19.6888 16.5572 19.6827 16.5486 19.6735C16.5285 19.6398 16.5055 19.6092 16.4853 19.5755C16.4767 19.5663 16.471 19.5602 16.4623 19.551C16.4422 19.5173 16.4192 19.4867 16.3991 19.453C16.3905 19.4438 16.3847 19.4377 16.3761 19.4285C16.356 19.4162 16.333 19.404 16.3128 19.3917C16.3042 19.3826 16.2985 19.3764 16.2898 19.3672C16.2783 19.355 16.2668 19.3427 16.2553 19.3305C16.2467 19.3213 16.241 19.3152 16.2323 19.306C16.2151 19.2968 16.195 19.2815 16.172 19.2692ZM21.7006 29.8747C21.7092 29.8655 21.715 29.8594 21.7236 29.8502C21.7552 29.8379 21.784 29.8257 21.8156 29.8134C21.8242 29.8042 21.83 29.7981 21.8386 29.7889C21.8702 29.7767 21.899 29.7644 21.9306 29.7522C21.9392 29.743 21.945 29.7369 21.9536 29.7277C21.9651 29.7154 21.9766 29.7032 21.9881 29.6909C21.9967 29.6817 22.0025 29.6756 22.0111 29.6664C22.0312 29.6542 22.0542 29.6419 22.0743 29.6297C22.083 29.6205 22.0887 29.6144 22.0973 29.6052C22.1088 29.5929 22.1203 29.5807 22.1318 29.5684C22.1405 29.5592 22.1462 29.5531 22.1548 29.5439C22.175 29.5102 22.198 29.4796 22.2181 29.4459C22.2267 29.4367 22.2325 29.4306 22.2411 29.4214C22.2813 29.3081 22.3532 29.1948 22.3532 29.0815C22.359 25.8169 22.359 22.5522 22.359 19.2876C22.359 19.2356 22.359 19.1804 22.359 19.1314C21.7207 19.1314 21.1055 19.1314 20.4816 19.1314C20.4816 19.2111 20.4816 19.2754 20.4816 19.3427C20.4816 22.2246 20.4816 25.1064 20.4816 27.9882C20.4816 28.0556 20.4787 28.1199 20.4787 28.1872C20.4701 28.1964 20.4643 28.2026 20.4557 28.2117C20.0446 28.2117 19.6335 28.2117 19.2223 28.2117C19.2137 28.2026 19.208 28.1964 19.1993 28.1872C19.1993 28.1199 19.1965 28.0556 19.1965 27.9882C19.1965 25.1002 19.1965 22.2123 19.1965 19.3244C19.1965 19.2601 19.1965 19.1957 19.1965 19.1284C18.5611 19.1284 17.9487 19.1284 17.3191 19.1284C17.3191 19.1927 17.3191 19.2478 17.3191 19.3029C17.3191 19.8297 17.3191 20.3534 17.3191 20.8801C17.3191 23.5782 17.3162 26.2793 17.3248 28.9774C17.3248 29.1152 17.3996 29.253 17.437 29.3908C17.4456 29.4 17.4513 29.4061 17.46 29.4153C17.529 29.498 17.598 29.5837 17.667 29.6664C17.6756 29.6756 17.6813 29.6817 17.69 29.6909C17.7101 29.7032 17.7331 29.7154 17.7532 29.7277C17.7618 29.7369 17.7676 29.743 17.7762 29.7522C17.7963 29.7644 17.8193 29.7767 17.8395 29.7889C17.8481 29.7981 17.8538 29.8042 17.8625 29.8134C17.9027 29.8257 17.943 29.8379 17.9832 29.8502C17.9918 29.8594 17.9976 29.8655 18.0062 29.8747C18.1298 29.8961 18.2535 29.9359 18.3771 29.9359C19.3632 29.9421 20.3465 29.9421 21.3326 29.9359C21.4533 29.9359 21.577 29.8961 21.7006 29.8747ZM33.5082 23.6792C33.4996 23.6701 33.4938 23.6639 33.4852 23.6547C33.4651 23.6425 33.4421 23.6302 33.422 23.618C33.4133 23.6088 33.4076 23.6027 33.399 23.5935C33.2121 23.5108 33.0281 23.3699 32.8383 23.3577C32.3525 23.324 31.8637 23.3454 31.3778 23.3454C31.2715 23.3454 31.2283 23.3883 31.2283 23.5077C31.2341 23.9855 31.2312 24.4632 31.2312 24.9441C31.2312 24.9839 31.237 25.0206 31.2427 25.0727C31.467 25.0727 31.6797 25.0727 31.8953 25.0727C31.904 25.0819 31.9097 25.088 31.9183 25.0972C31.9183 26.1262 31.9183 27.1582 31.9183 28.1872C31.9097 28.1964 31.904 28.2026 31.8953 28.2117C31.4756 28.2117 31.053 28.2117 30.6332 28.2117C30.6246 28.2026 30.6188 28.1964 30.6102 28.1872C30.6102 26.5396 30.6073 24.892 30.6073 23.2444C30.6073 22.4542 30.6102 21.6641 30.6102 20.8709C30.6188 20.8617 30.6246 20.8556 30.6332 20.8464C31.053 20.8464 31.4756 20.8464 31.8953 20.8464C31.904 20.8556 31.9097 20.8617 31.9183 20.8709C31.9183 21.266 31.9183 21.6611 31.9183 22.0531C31.9557 22.0622 31.9701 22.0684 31.9816 22.0684C32.5451 22.0684 33.1115 22.0684 33.675 22.0714C33.7842 22.0714 33.8015 22.0163 33.7986 21.9183C33.7957 21.3487 33.79 20.776 33.8015 20.2064C33.8072 19.9614 33.7353 19.7592 33.5945 19.5755C33.5858 19.5663 33.5801 19.5602 33.5715 19.551C33.5513 19.5173 33.5283 19.4867 33.5082 19.453C33.4996 19.4438 33.4938 19.4377 33.4852 19.4285C33.4651 19.4162 33.4421 19.404 33.422 19.3917C33.4133 19.3826 33.4076 19.3764 33.399 19.3672C33.3875 19.355 33.376 19.3427 33.3645 19.3305C33.3558 19.3213 33.3501 19.3152 33.3415 19.306C33.3213 19.2937 33.2983 19.2815 33.2782 19.2692C33.2696 19.2601 33.2638 19.2539 33.2552 19.2447C33.215 19.2325 33.1747 19.2202 33.1345 19.208C33.1258 19.1988 33.1201 19.1927 33.1115 19.1835C32.9965 19.1621 32.8843 19.1222 32.7693 19.1222C31.7545 19.1161 30.7425 19.1161 29.7276 19.1222C29.6126 19.1222 29.5005 19.1621 29.3855 19.1835C29.3768 19.1927 29.3711 19.1988 29.3625 19.208C29.3308 19.2202 29.3021 19.2325 29.2705 19.2447C29.2618 19.2539 29.2561 19.2601 29.2475 19.2692C29.2158 19.2815 29.1871 19.2937 29.1555 19.306C29.1468 19.3152 29.1411 19.3213 29.1325 19.3305C29.121 19.3427 29.1095 19.355 29.098 19.3672C29.0893 19.3764 29.0836 19.3826 29.075 19.3917C29.0635 19.404 29.052 19.4162 29.0405 19.4285C29.0318 19.4377 29.0261 19.4438 29.0175 19.453C28.9973 19.4652 28.9743 19.4775 28.9542 19.4897C28.9456 19.4989 28.9398 19.5051 28.9312 19.5142C28.9111 19.5479 28.8881 19.5786 28.868 19.6122C28.8593 19.6214 28.8536 19.6276 28.845 19.6367C28.8335 19.6796 28.822 19.7225 28.8105 19.7654C28.8018 19.7746 28.7961 19.7807 28.7875 19.7899C28.7673 19.8572 28.73 19.9246 28.73 19.992C28.7271 22.4144 28.7271 24.8369 28.7271 27.2624C28.7271 27.8749 28.7242 28.4874 28.73 29.0999C28.73 29.1581 28.7673 29.2132 28.7875 29.2714C28.7961 29.2806 28.8018 29.2867 28.8105 29.2959C28.822 29.3387 28.8335 29.3816 28.845 29.4245C28.8536 29.4337 28.8593 29.4398 28.868 29.449C28.8881 29.4827 28.9111 29.5133 28.9312 29.547C28.9398 29.5562 28.9456 29.5623 28.9542 29.5715C28.9743 29.5837 28.9973 29.596 29.0175 29.6082C29.0261 29.6174 29.0318 29.6236 29.0405 29.6327C29.052 29.645 29.0635 29.6572 29.075 29.6695C29.0836 29.6787 29.0893 29.6848 29.098 29.694C29.1181 29.7062 29.1411 29.7185 29.1612 29.7307C29.1698 29.7399 29.1756 29.7461 29.1842 29.7552C29.2043 29.7675 29.2273 29.7797 29.2475 29.792C29.2561 29.8012 29.2618 29.8073 29.2705 29.8165C29.3021 29.8287 29.3308 29.841 29.3625 29.8532C29.3711 29.8624 29.3768 29.8686 29.3855 29.8777C29.5177 29.8992 29.65 29.939 29.7851 29.939C30.7712 29.9451 31.7545 29.9451 32.7406 29.939C32.8642 29.939 32.9878 29.8992 33.1115 29.8777C33.1201 29.8686 33.1258 29.8624 33.1345 29.8532C33.1661 29.841 33.1948 29.8287 33.2265 29.8165C33.2351 29.8073 33.2408 29.8012 33.2495 29.792C33.2696 29.7797 33.2926 29.7675 33.3127 29.7552C33.3213 29.7461 33.3271 29.7399 33.3357 29.7307C33.3558 29.7185 33.3788 29.7062 33.399 29.694C33.4076 29.6848 33.4133 29.6787 33.422 29.6695C33.4421 29.6572 33.4651 29.645 33.4852 29.6327C33.4938 29.6236 33.4996 29.6174 33.5082 29.6082C33.5283 29.5746 33.5513 29.5439 33.5715 29.5102C33.5801 29.5011 33.5858 29.4949 33.5945 29.4857C33.606 29.4643 33.6175 29.4398 33.629 29.4184C33.6376 29.4092 33.6433 29.4031 33.652 29.3939C33.6836 29.3204 33.7123 29.2469 33.744 29.1734C33.7526 29.1642 33.7583 29.1581 33.767 29.1489C33.7785 29.0968 33.7986 29.0447 33.7986 28.9927C33.8015 27.4186 33.8015 25.8444 33.7986 24.2672C33.7986 24.2152 33.7612 24.1601 33.7411 24.108C33.7325 24.0988 33.7267 24.0927 33.7181 24.0835C33.7066 24.0314 33.6951 23.9763 33.6836 23.9242C33.675 23.9151 33.6692 23.9089 33.6606 23.8997C33.6405 23.8661 33.6175 23.8354 33.5973 23.8017C33.5887 23.7926 33.583 23.7864 33.5743 23.7772C33.5513 23.7466 33.5312 23.7129 33.5082 23.6792ZM27.9681 19.7072C27.9278 19.6429 27.8876 19.5816 27.8473 19.5173C27.8387 19.5081 27.833 19.502 27.8243 19.4928C27.8042 19.4591 27.7812 19.4285 27.7611 19.3948C27.7525 19.3856 27.7467 19.3795 27.7381 19.3703C27.718 19.3581 27.695 19.3458 27.6748 19.3336C27.6662 19.3244 27.6605 19.3182 27.6518 19.3091C27.6202 19.2968 27.5915 19.2846 27.5598 19.2723C27.5512 19.2631 27.5455 19.257 27.5368 19.2478C27.5052 19.2356 27.4765 19.2233 27.4448 19.2111C27.4362 19.2019 27.4305 19.1957 27.4218 19.1866C27.3068 19.1651 27.1947 19.1253 27.0797 19.1253C26.2776 19.1192 25.4726 19.1192 24.6705 19.1253C24.5555 19.1253 24.4433 19.1651 24.3283 19.1866C24.3197 19.1957 24.314 19.2019 24.3053 19.2111C24.2651 19.2233 24.2248 19.2356 24.1846 19.2478C24.176 19.257 24.1702 19.2631 24.1616 19.2723C24.1415 19.2846 24.1185 19.2968 24.0983 19.3091C24.0897 19.3182 24.084 19.3244 24.0753 19.3336C24.0552 19.3458 24.0322 19.3581 24.0121 19.3703C24.0035 19.3795 23.9977 19.3856 23.9891 19.3948C23.9776 19.4071 23.9661 19.4193 23.9546 19.4316C23.946 19.4407 23.9402 19.4469 23.9316 19.4561C23.9201 19.4683 23.9086 19.4806 23.8971 19.4928C23.8885 19.502 23.8827 19.5081 23.8741 19.5173C23.854 19.551 23.831 19.5816 23.8108 19.6153C23.8022 19.6245 23.7965 19.6306 23.7878 19.6398C23.7476 19.7531 23.6757 19.8664 23.6757 19.9797C23.6671 21.0945 23.6671 22.2092 23.6671 23.324C23.6585 23.3332 23.6527 23.3393 23.6441 23.3485C23.4457 23.3485 23.2473 23.3485 23.049 23.3485C23.049 23.9396 23.049 24.5 23.049 25.0788C23.256 25.0788 23.4486 25.0788 23.6441 25.0788C23.6527 25.088 23.6585 25.0941 23.6671 25.1033C23.6671 26.4324 23.67 27.7616 23.6728 29.0907C23.6728 29.1519 23.693 29.2132 23.7045 29.2775C23.7131 29.2867 23.7188 29.2928 23.7275 29.302C23.7476 29.3449 23.7706 29.3877 23.7907 29.4306C23.7993 29.4398 23.8051 29.4459 23.8137 29.4551C23.854 29.5072 23.8942 29.5623 23.9345 29.6144C23.9431 29.6236 23.9488 29.6297 23.9575 29.6389C23.9776 29.6511 24.0006 29.6634 24.0207 29.6756C24.0293 29.6848 24.0351 29.6909 24.0437 29.7001C24.0552 29.7124 24.0667 29.7246 24.0782 29.7369C24.0868 29.7461 24.0926 29.7522 24.1012 29.7614C24.1328 29.7736 24.1616 29.7859 24.1932 29.7981C24.2018 29.8073 24.2076 29.8134 24.2162 29.8226C24.2478 29.8349 24.2766 29.8471 24.3082 29.8594C24.3168 29.8686 24.3226 29.8747 24.3312 29.8839C24.4548 29.9053 24.5785 29.9451 24.7021 29.9451C25.4755 29.9512 26.2517 29.9512 27.0251 29.9451C27.1487 29.9451 27.2723 29.9053 27.396 29.8839C27.4046 29.8747 27.4103 29.8686 27.419 29.8594C27.4592 29.8471 27.4995 29.8349 27.5397 29.8226C27.5483 29.8134 27.5541 29.8073 27.5627 29.7981C27.5943 29.7859 27.6231 29.7736 27.6547 29.7614C27.6633 29.7522 27.6691 29.7461 27.6777 29.7369C27.6978 29.7246 27.7208 29.7124 27.741 29.7001C27.7496 29.6909 27.7553 29.6848 27.764 29.6756C27.7841 29.6419 27.8071 29.6113 27.8272 29.5776C27.8358 29.5684 27.8416 29.5623 27.8502 29.5531C27.8905 29.4888 27.9307 29.4276 27.971 29.3632C27.9796 29.3541 27.9853 29.3479 27.994 29.3387C28.0141 29.2806 28.0515 29.2254 28.0515 29.1672C28.0543 27.8902 28.0515 26.6101 28.0572 25.333C28.0572 25.1921 27.9997 25.1554 27.8876 25.1615C27.7496 25.1707 27.6145 25.1799 27.4765 25.1891C27.4678 25.1799 27.4621 25.1737 27.4535 25.1646C27.4448 24.5521 27.4333 23.9426 27.4247 23.3301C27.4333 23.3209 27.4391 23.3148 27.4477 23.3056C27.6461 23.3056 27.8445 23.3056 28.0342 23.3056C28.0457 23.2719 28.0515 23.2627 28.0515 23.2536C28.0515 22.1143 28.0543 20.9751 28.0515 19.8358C28.0515 19.8021 28.0141 19.7715 27.994 19.7378C27.9825 19.7225 27.9738 19.7133 27.9681 19.7072Z" fill="#E59A37"/>
<path d="M11.0252 17.297C11.0168 17.306 11.0111 17.312 11.0027 17.321C11.0111 17.312 11.0196 17.303 11.0252 17.297Z" fill="#B6813C"/>
<path d="M35.0229 17.3184C35.0144 17.3092 35.0088 17.3031 35.0004 17.2939C35.0088 17.3031 35.0172 17.3123 35.0229 17.3184Z" fill="#B6813C"/>
<path d="M35.0804 17.4103C35.0719 17.4011 35.0663 17.395 35.0579 17.3858C35.0663 17.395 35.0747 17.4042 35.0804 17.4103Z" fill="#B6813C"/>
<path d="M11.0056 31.7428C11.0141 31.7518 11.0197 31.7578 11.0281 31.7668C11.0197 31.7578 11.0112 31.7488 11.0056 31.7428Z" fill="#B6813C"/>
<path d="M35.0032 31.7637C35.0116 31.7547 35.0172 31.7487 35.0257 31.7397C35.0172 31.7487 35.0088 31.7577 35.0032 31.7637Z" fill="#B6813C"/>
<path d="M23.6671 23.3209C23.6671 22.2062 23.6671 21.0914 23.6758 19.9767C23.6758 19.8634 23.7505 19.7501 23.7879 19.6367C23.7965 19.6276 23.8023 19.6214 23.8109 19.6122C23.831 19.5786 23.854 19.5479 23.8741 19.5142C23.8828 19.5051 23.8885 19.4989 23.8971 19.4897C23.9086 19.4775 23.9201 19.4652 23.9316 19.453C23.9403 19.4438 23.946 19.4377 23.9546 19.4285C23.9661 19.4162 23.9776 19.404 23.9891 19.3917C23.9978 19.3826 24.0035 19.3764 24.0121 19.3672C24.0323 19.355 24.0553 19.3427 24.0754 19.3305C24.084 19.3213 24.0898 19.3152 24.0984 19.306C24.1185 19.2937 24.1415 19.2815 24.1616 19.2692C24.1703 19.2601 24.176 19.2539 24.1846 19.2447C24.2249 19.2325 24.2651 19.2202 24.3054 19.208C24.314 19.1988 24.3198 19.1927 24.3284 19.1835C24.4405 19.1621 24.5555 19.1222 24.6705 19.1222C25.4726 19.1161 26.2776 19.1161 27.0798 19.1222C27.1948 19.1222 27.3069 19.1621 27.4219 19.1835C27.4305 19.1927 27.4363 19.1988 27.4449 19.208C27.4765 19.2202 27.5053 19.2325 27.5369 19.2447C27.5455 19.2539 27.5513 19.2601 27.5599 19.2692C27.5915 19.2815 27.6203 19.2937 27.6519 19.306C27.6605 19.3152 27.6663 19.3213 27.6749 19.3305C27.695 19.3427 27.718 19.355 27.7381 19.3672C27.7468 19.3764 27.7525 19.3826 27.7611 19.3917C27.7813 19.4254 27.8043 19.4561 27.8244 19.4897C27.833 19.4989 27.8388 19.5051 27.8474 19.5142C27.8876 19.5786 27.9279 19.6398 27.9681 19.7041C27.9768 19.7133 27.9825 19.7194 27.9911 19.7286C28.0113 19.7623 28.0486 19.7929 28.0486 19.8266C28.0515 20.9659 28.0486 22.1051 28.0486 23.2444C28.0486 23.2536 28.0429 23.2627 28.0314 23.2964C27.8416 23.2964 27.6433 23.2964 27.4449 23.2964C27.4363 23.3056 27.4305 23.3117 27.4219 23.3209C27.4305 23.9334 27.442 24.5429 27.4506 25.1554C27.4593 25.1646 27.465 25.1707 27.4736 25.1799C27.6116 25.1707 27.7468 25.1615 27.8848 25.1523C27.9998 25.1462 28.0544 25.1829 28.0544 25.3238C28.0486 26.6009 28.0515 27.881 28.0486 29.1581C28.0486 29.2162 28.0113 29.2714 27.9911 29.3296C27.9825 29.3387 27.9768 29.3449 27.9681 29.3541C27.9279 29.4184 27.8876 29.4796 27.8474 29.5439C27.8388 29.5531 27.833 29.5592 27.8244 29.5684C27.8043 29.6021 27.7813 29.6327 27.7611 29.6664C27.7525 29.6756 27.7468 29.6817 27.7381 29.6909C27.718 29.7032 27.695 29.7154 27.6749 29.7277C27.6663 29.7369 27.6605 29.743 27.6519 29.7522C27.6203 29.7644 27.5915 29.7767 27.5599 29.7889C27.5513 29.7981 27.5455 29.8042 27.5369 29.8134C27.4966 29.8257 27.4564 29.8379 27.4161 29.8502C27.4075 29.8594 27.4018 29.8655 27.3931 29.8747C27.2695 29.8961 27.1459 29.9359 27.0223 29.9359C26.2489 29.9421 25.4726 29.9421 24.6993 29.9359C24.5756 29.9359 24.452 29.8961 24.3284 29.8747C24.3198 29.8655 24.314 29.8594 24.3054 29.8502C24.2738 29.8379 24.245 29.8257 24.2134 29.8134C24.2048 29.8042 24.199 29.7981 24.1904 29.7889C24.1588 29.7767 24.13 29.7644 24.0984 29.7522C24.0898 29.743 24.084 29.7369 24.0754 29.7277C24.0639 29.7154 24.0524 29.7032 24.0409 29.6909C24.0323 29.6817 24.0265 29.6756 24.0179 29.6664C23.9978 29.6542 23.9748 29.6419 23.9546 29.6297C23.946 29.6205 23.9403 29.6144 23.9316 29.6052C23.8914 29.5531 23.8511 29.498 23.8109 29.4459C23.8023 29.4367 23.7965 29.4306 23.7879 29.4214C23.7678 29.3786 23.7448 29.3357 23.7246 29.2928C23.716 29.2836 23.7103 29.2775 23.7016 29.2683C23.6901 29.2071 23.67 29.1458 23.67 29.0815C23.6671 27.7524 23.6671 26.4232 23.6643 25.0941C23.6556 25.0849 23.6499 25.0788 23.6413 25.0696C23.4458 25.0696 23.2503 25.0696 23.0461 25.0696C23.0461 24.4908 23.0461 23.9273 23.0461 23.3393C23.2445 23.3393 23.4429 23.3393 23.6413 23.3393C23.6528 23.3362 23.6614 23.3271 23.6671 23.3209ZM26.1224 25.2289C26.108 25.2044 26.0936 25.1584 26.0793 25.1584C25.9441 25.1523 25.8119 25.1523 25.6768 25.1584C25.6566 25.1584 25.6279 25.2136 25.625 25.2442C25.6193 25.3085 25.6279 25.3759 25.6279 25.4432C25.6279 26.2762 25.6279 27.1062 25.6279 27.9392C25.6279 28.0004 25.6279 28.0586 25.6279 28.1229C25.8033 28.1229 25.9614 28.1229 26.1023 28.1229C26.1023 27.1582 26.1023 26.2058 26.1023 25.2534C26.108 25.2442 26.1138 25.235 26.1224 25.2289ZM25.6308 20.9322C25.6308 21.7162 25.6308 22.4849 25.6308 23.2536C25.809 23.2536 25.9729 23.2536 26.1166 23.2536C26.1166 22.4726 26.1166 21.7039 26.1166 20.9322C25.9614 20.9322 25.7918 20.9322 25.6308 20.9322Z" fill="#142B4D"/>
<path d="M28.8708 19.6153C28.8909 19.5816 28.9139 19.551 28.9341 19.5173C28.9427 19.5081 28.9484 19.502 28.9571 19.4928C28.9772 19.4806 29.0002 19.4683 29.0203 19.4561C29.0289 19.4469 29.0347 19.4407 29.0433 19.4316C29.0548 19.4193 29.0663 19.4071 29.0778 19.3948C29.0864 19.3856 29.0922 19.3795 29.1008 19.3703C29.1123 19.3581 29.1238 19.3458 29.1353 19.3336C29.1439 19.3244 29.1497 19.3182 29.1583 19.3091C29.1899 19.2968 29.2187 19.2846 29.2503 19.2723C29.2589 19.2631 29.2647 19.257 29.2733 19.2478C29.3049 19.2356 29.3337 19.2233 29.3653 19.2111C29.3739 19.2019 29.3797 19.1957 29.3883 19.1866C29.5033 19.1651 29.6154 19.1253 29.7304 19.1253C30.7453 19.1192 31.7573 19.1192 32.7722 19.1253C32.8872 19.1253 32.9993 19.1651 33.1143 19.1866C33.1229 19.1957 33.1287 19.2019 33.1373 19.2111C33.1775 19.2233 33.2178 19.2356 33.258 19.2478C33.2667 19.257 33.2724 19.2631 33.281 19.2723C33.3012 19.2846 33.3242 19.2968 33.3443 19.3091C33.3529 19.3182 33.3587 19.3244 33.3673 19.3336C33.3788 19.3458 33.3903 19.3581 33.4018 19.3703C33.4104 19.3795 33.4162 19.3856 33.4248 19.3948C33.4449 19.4071 33.4679 19.4193 33.488 19.4316C33.4967 19.4407 33.5024 19.4469 33.511 19.4561C33.5312 19.4897 33.5542 19.5204 33.5743 19.5541C33.5829 19.5632 33.5887 19.5694 33.5973 19.5786C33.7382 19.7623 33.81 19.9644 33.8043 20.2094C33.7928 20.7791 33.7985 21.3517 33.8014 21.9214C33.8014 22.0163 33.7842 22.0745 33.6778 22.0745C33.1143 22.0714 32.5479 22.0714 31.9844 22.0714C31.97 22.0714 31.9585 22.0653 31.9212 22.0561C31.9212 21.6641 31.9212 21.2691 31.9212 20.874C31.9125 20.8648 31.9068 20.8587 31.8982 20.8495C31.4784 20.8495 31.0558 20.8495 30.636 20.8495C30.6274 20.8587 30.6217 20.8648 30.613 20.874C30.613 21.6641 30.6102 22.4542 30.6102 23.2474C30.6102 24.8951 30.613 26.5427 30.613 28.1903C30.6217 28.1995 30.6274 28.2056 30.636 28.2148C31.0558 28.2148 31.4784 28.2148 31.8982 28.2148C31.9068 28.2056 31.9125 28.1995 31.9212 28.1903C31.9212 27.1613 31.9212 26.1292 31.9212 25.1002C31.9125 25.0911 31.9068 25.0849 31.8982 25.0757C31.6825 25.0757 31.4698 25.0757 31.2455 25.0757C31.2398 25.0237 31.234 24.9839 31.234 24.9471C31.234 24.4694 31.2369 23.9916 31.2312 23.5108C31.2312 23.3914 31.2743 23.3485 31.3807 23.3485C31.8665 23.3485 32.3553 23.3271 32.8412 23.3607C33.0309 23.373 33.2149 23.5139 33.4018 23.5966C33.4104 23.6057 33.4162 23.6119 33.4248 23.6211C33.4449 23.6333 33.4679 23.6456 33.488 23.6578C33.4967 23.667 33.5024 23.6731 33.511 23.6823C33.5312 23.716 33.5542 23.7466 33.5743 23.7803C33.5829 23.7895 33.5887 23.7956 33.5973 23.8048C33.6174 23.8385 33.6404 23.8691 33.6605 23.9028C33.6692 23.912 33.6749 23.9181 33.6835 23.9273C33.695 23.9794 33.7065 24.0345 33.718 24.0866C33.7267 24.0957 33.7324 24.1019 33.741 24.1111C33.7612 24.1631 33.7985 24.2182 33.7985 24.2703C33.8014 25.8444 33.8014 27.4186 33.7985 28.9957C33.7985 29.0478 33.7784 29.0999 33.7669 29.1519C33.7583 29.1611 33.7525 29.1672 33.7439 29.1764C33.7123 29.2499 33.6835 29.3234 33.6519 29.3969C33.6433 29.4061 33.6375 29.4122 33.6289 29.4214C33.6174 29.4429 33.6059 29.4674 33.5944 29.4888C33.5858 29.498 33.58 29.5041 33.5714 29.5133C33.5513 29.547 33.5283 29.5776 33.5082 29.6113C33.4995 29.6205 33.4938 29.6266 33.4852 29.6358C33.465 29.6481 33.442 29.6603 33.4219 29.6726C33.4133 29.6817 33.4075 29.6879 33.3989 29.6971C33.3788 29.7093 33.3558 29.7216 33.3357 29.7338C33.327 29.743 33.3213 29.7491 33.3127 29.7583C33.2925 29.7706 33.2695 29.7828 33.2494 29.7951C33.2408 29.8042 33.235 29.8104 33.2264 29.8196C33.1948 29.8318 33.166 29.8441 33.1344 29.8563C33.1258 29.8655 33.12 29.8716 33.1114 29.8808C32.9878 29.9022 32.8642 29.9421 32.7405 29.9421C31.7544 29.9482 30.7712 29.9482 29.785 29.9421C29.6528 29.9421 29.5205 29.9022 29.3854 29.8808C29.3768 29.8716 29.371 29.8655 29.3624 29.8563C29.3308 29.8441 29.302 29.8318 29.2704 29.8196C29.2618 29.8104 29.256 29.8042 29.2474 29.7951C29.2273 29.7828 29.2043 29.7706 29.1842 29.7583C29.1755 29.7491 29.1698 29.743 29.1612 29.7338C29.141 29.7216 29.118 29.7093 29.0979 29.6971C29.0893 29.6879 29.0835 29.6817 29.0749 29.6726C29.0634 29.6603 29.0519 29.6481 29.0404 29.6358C29.0318 29.6266 29.026 29.6205 29.0174 29.6113C28.9973 29.5991 28.9743 29.5868 28.9542 29.5746C28.9455 29.5654 28.9398 29.5592 28.9312 29.5501C28.911 29.5164 28.888 29.4857 28.8679 29.4521C28.8593 29.4429 28.8535 29.4367 28.8449 29.4276C28.8334 29.3847 28.8219 29.3418 28.8104 29.2989C28.8018 29.2897 28.796 29.2836 28.7874 29.2744C28.7673 29.2162 28.7299 29.1611 28.7299 29.1029C28.7271 28.4904 28.7271 27.8779 28.7271 27.2654C28.7271 24.843 28.7271 22.4206 28.7299 19.9951C28.7299 19.9277 28.7673 19.8603 28.7874 19.7929C28.796 19.7837 28.8018 19.7776 28.8104 19.7684C28.8219 19.7256 28.8334 19.6827 28.8449 19.6398C28.8564 19.6306 28.8651 19.6214 28.8708 19.6153Z" fill="#142B4D"/>
<path d="M20.4759 28.1903C20.4759 28.1229 20.4787 28.0586 20.4787 27.9912C20.4787 25.1094 20.4787 22.2276 20.4787 19.3458C20.4787 19.2784 20.4787 19.2141 20.4787 19.1345C21.1026 19.1345 21.7179 19.1345 22.3561 19.1345C22.3561 19.1835 22.3561 19.2356 22.3561 19.2907C22.3561 22.5553 22.3561 25.8199 22.3504 29.0846C22.3504 29.1979 22.2756 29.3112 22.2382 29.4245C22.2296 29.4337 22.2239 29.4398 22.2152 29.449C22.1951 29.4827 22.1721 29.5133 22.152 29.547C22.1434 29.5562 22.1376 29.5623 22.129 29.5715C22.1175 29.5837 22.106 29.596 22.0945 29.6082C22.0859 29.6174 22.0801 29.6236 22.0715 29.6327C22.0514 29.645 22.0284 29.6572 22.0082 29.6695C21.9996 29.6787 21.9939 29.6848 21.9852 29.694C21.9737 29.7062 21.9622 29.7185 21.9507 29.7307C21.9421 29.7399 21.9364 29.7461 21.9277 29.7552C21.8961 29.7675 21.8674 29.7797 21.8357 29.792C21.8271 29.8012 21.8214 29.8073 21.8127 29.8165C21.7811 29.8287 21.7524 29.841 21.7207 29.8532C21.7121 29.8624 21.7064 29.8686 21.6977 29.8777C21.5741 29.8992 21.4505 29.939 21.3269 29.939C20.3407 29.9451 19.3575 29.9451 18.3714 29.939C18.2477 29.939 18.1241 29.8992 18.0005 29.8777C17.9919 29.8686 17.9861 29.8624 17.9775 29.8532C17.9372 29.841 17.897 29.8287 17.8567 29.8165C17.8481 29.8073 17.8424 29.8012 17.8337 29.792C17.8136 29.7797 17.7906 29.7675 17.7705 29.7552C17.7619 29.7461 17.7561 29.7399 17.7475 29.7307C17.7274 29.7185 17.7044 29.7062 17.6842 29.694C17.6756 29.6848 17.6699 29.6787 17.6612 29.6695C17.5922 29.5868 17.5232 29.5011 17.4542 29.4184C17.4456 29.4092 17.4399 29.4031 17.4312 29.3939C17.391 29.2561 17.3191 29.1182 17.3191 28.9804C17.3134 26.2824 17.3134 23.5812 17.3134 20.8832C17.3134 20.3564 17.3134 19.8327 17.3134 19.306C17.3134 19.2509 17.3134 19.1957 17.3134 19.1314C17.9401 19.1314 18.5554 19.1314 19.1907 19.1314C19.1907 19.1988 19.1907 19.2631 19.1907 19.3274C19.1907 22.2154 19.1907 25.1033 19.1907 27.9912C19.1907 28.0586 19.1936 28.1229 19.1936 28.1903C19.2022 28.1995 19.208 28.2056 19.2166 28.2148C19.6277 28.2148 20.0389 28.2148 20.45 28.2148C20.4615 28.2056 20.4701 28.1964 20.4759 28.1903Z" fill="#142B4D"/>
<path d="M12.6845 19.3091C12.7047 19.2968 12.7277 19.2846 12.7478 19.2723C12.7564 19.2631 12.7622 19.257 12.7708 19.2478C12.811 19.2356 12.8513 19.2233 12.8915 19.2111C12.9002 19.2019 12.9059 19.1957 12.9145 19.1866C13.0267 19.1651 13.1417 19.1253 13.2567 19.1253C14.0588 19.1192 14.8638 19.1192 15.6659 19.1253C15.7809 19.1253 15.893 19.1651 16.008 19.1866C16.0167 19.1957 16.0224 19.2019 16.031 19.2111C16.0713 19.2233 16.1115 19.2356 16.1518 19.2478C16.1604 19.257 16.1662 19.2631 16.1748 19.2723C16.1949 19.2846 16.2179 19.2968 16.238 19.3091C16.2467 19.3182 16.2524 19.3244 16.261 19.3336C16.2725 19.3458 16.284 19.3581 16.2955 19.3703C16.3042 19.3795 16.3099 19.3856 16.3185 19.3948C16.3387 19.4071 16.3617 19.4193 16.3818 19.4316C16.3904 19.4407 16.3962 19.4469 16.4048 19.4561C16.4249 19.4897 16.4479 19.5204 16.468 19.5541C16.4767 19.5632 16.4824 19.5694 16.491 19.5786C16.5112 19.6122 16.5342 19.6429 16.5543 19.6766C16.5629 19.6857 16.5687 19.6919 16.5773 19.7011C16.5974 19.7746 16.6204 19.8481 16.6405 19.9216C16.6492 19.9307 16.6549 19.9369 16.6635 19.9461C16.675 19.9981 16.6952 20.0502 16.6952 20.1022C16.698 21.6366 16.698 23.1739 16.6952 24.7082C16.6952 24.7603 16.675 24.8124 16.6635 24.8644C16.6549 24.8736 16.6492 24.8797 16.6405 24.8889C16.6204 24.9716 16.5974 25.0574 16.5773 25.1401C16.5687 25.1492 16.5629 25.1554 16.5543 25.1646C16.5342 25.1982 16.5112 25.2289 16.491 25.2626C16.4824 25.2717 16.4767 25.2779 16.468 25.2871C16.4479 25.3207 16.4249 25.3514 16.4048 25.3851C16.3962 25.3942 16.3904 25.4004 16.3818 25.4096C16.3617 25.4218 16.3387 25.4341 16.3185 25.4463C16.3099 25.4555 16.3042 25.4616 16.2955 25.4708C16.0195 25.6576 15.7205 25.7342 15.3928 25.7219C14.973 25.7097 14.5533 25.7219 14.1335 25.7219C14.1249 25.7311 14.1192 25.7372 14.1105 25.7464C14.1105 27.0725 14.1077 28.3986 14.1077 29.7246C14.1077 29.7889 14.1077 29.8563 14.1077 29.9329C14.0588 29.9359 14.0157 29.9421 13.9754 29.9421C13.4493 29.9421 12.9232 29.939 12.3942 29.9451C12.2562 29.9482 12.2274 29.8931 12.2274 29.7583C12.2303 26.5182 12.2303 23.2811 12.2332 20.041C12.2332 19.8603 12.3309 19.7133 12.4344 19.5786C12.443 19.5694 12.4488 19.5632 12.4574 19.5541C12.4775 19.5204 12.5005 19.4897 12.5207 19.4561C12.5293 19.4469 12.535 19.4407 12.5437 19.4316C12.5638 19.4193 12.5868 19.4071 12.6069 19.3948C12.6155 19.3856 12.6213 19.3795 12.6299 19.3703C12.6414 19.3581 12.6529 19.3458 12.6644 19.3336C12.6702 19.3244 12.6788 19.3152 12.6845 19.3091ZM14.7315 23.8936C14.7315 22.9106 14.7315 21.9244 14.7315 20.9383C14.5475 20.9383 14.3722 20.9383 14.1968 20.9383C14.1968 21.9336 14.1968 22.9167 14.1968 23.8936C14.3779 23.8936 14.5504 23.8936 14.7315 23.8936Z" fill="#142B4D"/>
<path d="M12.9141 19.1866C12.9057 19.1956 12.9 19.2016 12.8916 19.2106C12.9 19.2016 12.9085 19.1926 12.9141 19.1866Z" fill="#B6813C"/>
<path d="M16.0276 19.2075C16.0192 19.1985 16.0136 19.1925 16.0051 19.1835C16.0136 19.1925 16.022 19.2015 16.0276 19.2075Z" fill="#B6813C"/>
<path d="M24.3278 19.1866C24.3194 19.1956 24.3137 19.2016 24.3053 19.2106C24.3137 19.2016 24.3222 19.1926 24.3278 19.1866Z" fill="#B6813C"/>
<path d="M27.4415 19.2075C27.433 19.1985 27.4274 19.1925 27.4189 19.1835C27.4274 19.1925 27.4358 19.2015 27.4415 19.2075Z" fill="#B6813C"/>
<path d="M29.3879 19.1866C29.3794 19.1956 29.3738 19.2016 29.3654 19.2106C29.3738 19.2016 29.3822 19.1926 29.3879 19.1866Z" fill="#B6813C"/>
<path d="M33.134 19.2075C33.1255 19.1985 33.1199 19.1925 33.1115 19.1835C33.1199 19.1925 33.1283 19.2015 33.134 19.2075Z" fill="#B6813C"/>
<path d="M12.7703 19.2478C12.7619 19.257 12.7562 19.2631 12.7478 19.2723C12.7562 19.2631 12.7647 19.2539 12.7703 19.2478Z" fill="#B6813C"/>
<path d="M16.1714 19.2692C16.163 19.2601 16.1574 19.2539 16.1489 19.2447C16.1574 19.2539 16.1658 19.2631 16.1714 19.2692Z" fill="#B6813C"/>
<path d="M24.1841 19.2478C24.1757 19.257 24.1701 19.2631 24.1616 19.2723C24.1701 19.2631 24.1785 19.2539 24.1841 19.2478Z" fill="#B6813C"/>
<path d="M27.5565 19.2692C27.548 19.2601 27.5424 19.2539 27.5339 19.2447C27.5424 19.2539 27.5508 19.2631 27.5565 19.2692Z" fill="#B6813C"/>
<path d="M29.2727 19.2478C29.2643 19.257 29.2587 19.2631 29.2502 19.2723C29.2587 19.2631 29.2671 19.2539 29.2727 19.2478Z" fill="#B6813C"/>
<path d="M33.2778 19.2692C33.2693 19.2601 33.2637 19.2539 33.2552 19.2447C33.2637 19.2539 33.2721 19.2631 33.2778 19.2692Z" fill="#B6813C"/>
<path d="M12.684 19.3091C12.6756 19.3181 12.6699 19.3241 12.6615 19.3331C12.6699 19.3241 12.6784 19.3151 12.684 19.3091Z" fill="#B6813C"/>
<path d="M16.2577 19.3305C16.2493 19.3213 16.2437 19.3152 16.2352 19.306C16.2437 19.3152 16.2521 19.3244 16.2577 19.3305Z" fill="#B6813C"/>
<path d="M24.0978 19.3091C24.0894 19.3181 24.0838 19.3241 24.0753 19.3331C24.0838 19.3241 24.0922 19.3151 24.0978 19.3091Z" fill="#B6813C"/>
<path d="M27.6714 19.3305C27.663 19.3213 27.6574 19.3152 27.6489 19.306C27.6574 19.3152 27.6658 19.3244 27.6714 19.3305Z" fill="#B6813C"/>
<path d="M29.1579 19.3091C29.1494 19.3181 29.1438 19.3241 29.1354 19.3331C29.1438 19.3241 29.1522 19.3151 29.1579 19.3091Z" fill="#B6813C"/>
<path d="M33.3639 19.3305C33.3555 19.3213 33.3499 19.3152 33.3414 19.306C33.3499 19.3152 33.3583 19.3244 33.3639 19.3305Z" fill="#B6813C"/>
<path d="M12.6266 19.3703C12.6182 19.3795 12.6126 19.3856 12.6041 19.3948C12.6126 19.3856 12.621 19.3764 12.6266 19.3703Z" fill="#B6813C"/>
<path d="M16.3152 19.3912C16.3068 19.3822 16.3012 19.3762 16.2927 19.3672C16.3012 19.3762 16.3096 19.3852 16.3152 19.3912Z" fill="#B6813C"/>
<path d="M24.0115 19.3703C24.0031 19.3795 23.9975 19.3856 23.989 19.3948C23.9975 19.3856 24.0059 19.3764 24.0115 19.3703Z" fill="#B6813C"/>
<path d="M27.7576 19.3912C27.7492 19.3822 27.7435 19.3762 27.7351 19.3672C27.7435 19.3762 27.752 19.3852 27.7576 19.3912Z" fill="#B6813C"/>
<path d="M29.1004 19.3703C29.092 19.3795 29.0863 19.3856 29.0779 19.3948C29.0863 19.3856 29.0948 19.3764 29.1004 19.3703Z" fill="#B6813C"/>
<path d="M33.4214 19.3912C33.413 19.3822 33.4074 19.3762 33.3989 19.3672C33.4074 19.3762 33.4158 19.3852 33.4214 19.3912Z" fill="#B6813C"/>
<path d="M12.5403 19.4316C12.5319 19.4407 12.5263 19.4469 12.5178 19.4561C12.5263 19.4469 12.5347 19.4377 12.5403 19.4316Z" fill="#B6813C"/>
<path d="M16.4014 19.4525C16.393 19.4435 16.3873 19.4375 16.3789 19.4285C16.3873 19.4375 16.3958 19.4465 16.4014 19.4525Z" fill="#B6813C"/>
<path d="M23.954 19.4316C23.9456 19.4407 23.94 19.4469 23.9315 19.4561C23.94 19.4469 23.9484 19.4377 23.954 19.4316Z" fill="#B6813C"/>
<path d="M29.0429 19.4316C29.0344 19.4407 29.0288 19.4469 29.0204 19.4561C29.0288 19.4469 29.0373 19.4377 29.0429 19.4316Z" fill="#B6813C"/>
<path d="M33.5077 19.4525C33.4993 19.4435 33.4937 19.4375 33.4852 19.4285C33.4937 19.4375 33.5021 19.4465 33.5077 19.4525Z" fill="#B6813C"/>
<path d="M23.8966 19.4928C23.8882 19.5018 23.8826 19.5078 23.8741 19.5168C23.8826 19.5078 23.891 19.4988 23.8966 19.4928Z" fill="#B6813C"/>
<path d="M27.8439 19.5137C27.8355 19.5047 27.8298 19.4987 27.8214 19.4897C27.8298 19.4987 27.8383 19.5077 27.8439 19.5137Z" fill="#B6813C"/>
<path d="M28.9566 19.4928C28.9481 19.5018 28.9425 19.5078 28.9341 19.5168C28.9425 19.5078 28.951 19.4988 28.9566 19.4928Z" fill="#B6813C"/>
<path d="M12.454 19.5541C12.4456 19.5631 12.44 19.5691 12.4315 19.5781C12.44 19.5691 12.4484 19.5601 12.454 19.5541Z" fill="#B6813C"/>
<path d="M16.4877 19.5755C16.4793 19.5663 16.4737 19.5602 16.4652 19.551C16.4737 19.5602 16.4821 19.5694 16.4877 19.5755Z" fill="#B6813C"/>
<path d="M33.5939 19.5755C33.5855 19.5663 33.5799 19.5602 33.5714 19.551C33.5799 19.5602 33.5883 19.5694 33.5939 19.5755Z" fill="#B6813C"/>
<path d="M23.8103 19.6153C23.8019 19.6241 23.7963 19.63 23.7878 19.6388C23.7963 19.63 23.8047 19.6212 23.8103 19.6153Z" fill="#B6813C"/>
<path d="M28.8704 19.6153C28.862 19.6241 28.8563 19.63 28.8479 19.6388C28.8563 19.63 28.8648 19.6212 28.8704 19.6153Z" fill="#B6813C"/>
<path d="M16.5739 19.6975C16.5655 19.6885 16.5598 19.6825 16.5514 19.6735C16.5598 19.6825 16.5683 19.6915 16.5739 19.6975Z" fill="#B6813C"/>
<path d="M27.9877 19.7281C27.9793 19.7191 27.9737 19.7131 27.9652 19.7041C27.9737 19.7131 27.9821 19.7221 27.9877 19.7281Z" fill="#B6813C"/>
<path d="M28.8128 19.7684C28.8044 19.7774 28.7987 19.7834 28.7903 19.7924C28.7987 19.7834 28.8072 19.7744 28.8128 19.7684Z" fill="#B6813C"/>
<path d="M16.6602 19.943C16.6518 19.9338 16.6461 19.9277 16.6377 19.9185C16.6461 19.9277 16.6546 19.9369 16.6602 19.943Z" fill="#B6813C"/>
<path d="M30.613 20.8699C30.6215 20.8611 30.6271 20.8552 30.6355 20.8464C30.6271 20.8552 30.6187 20.8641 30.613 20.8699Z" fill="#B6813C"/>
<path d="M31.8982 20.8495C31.9066 20.8585 31.9123 20.8645 31.9207 20.8735C31.9123 20.8645 31.9038 20.8555 31.8982 20.8495Z" fill="#B6813C"/>
<path d="M27.4218 23.3204C27.4302 23.3114 27.4358 23.3054 27.4443 23.2964C27.4358 23.3054 27.4274 23.3144 27.4218 23.3204Z" fill="#B6813C"/>
<path d="M23.6667 23.3209C23.6582 23.3299 23.6526 23.3359 23.6442 23.3449C23.6526 23.3359 23.661 23.3269 23.6667 23.3209Z" fill="#B6813C"/>
<path d="M33.4214 23.6175C33.413 23.6085 33.4074 23.6025 33.3989 23.5935C33.4074 23.6025 33.4158 23.6115 33.4214 23.6175Z" fill="#B6813C"/>
<path d="M33.5077 23.6782C33.4993 23.6694 33.4937 23.6636 33.4852 23.6547C33.4937 23.6636 33.5021 23.6724 33.5077 23.6782Z" fill="#B6813C"/>
<path d="M33.5939 23.8012C33.5855 23.7922 33.5799 23.7862 33.5714 23.7772C33.5799 23.7862 33.5883 23.7952 33.5939 23.8012Z" fill="#B6813C"/>
<path d="M33.6802 23.9242C33.6718 23.9151 33.6662 23.9089 33.6577 23.8997C33.6662 23.9089 33.6746 23.9181 33.6802 23.9242Z" fill="#B6813C"/>
<path d="M33.7377 24.1075C33.7293 24.0985 33.7237 24.0925 33.7152 24.0835C33.7237 24.0925 33.7321 24.1015 33.7377 24.1075Z" fill="#B6813C"/>
<path d="M16.6406 24.8823C16.6491 24.8733 16.6547 24.8673 16.6631 24.8583C16.6547 24.8673 16.6463 24.8763 16.6406 24.8823Z" fill="#B6813C"/>
<path d="M23.6469 25.0757C23.6553 25.0847 23.6609 25.0907 23.6694 25.0997C23.6609 25.0907 23.6525 25.0817 23.6469 25.0757Z" fill="#B6813C"/>
<path d="M31.8982 25.0757C31.9066 25.0847 31.9123 25.0907 31.9207 25.0997C31.9123 25.0907 31.9038 25.0817 31.8982 25.0757Z" fill="#B6813C"/>
<path d="M16.5543 25.1579C16.5628 25.1489 16.5684 25.1429 16.5768 25.1339C16.5684 25.1429 16.5599 25.1519 16.5543 25.1579Z" fill="#B6813C"/>
<path d="M27.4702 25.1789C27.4617 25.1701 27.4561 25.1642 27.4476 25.1554C27.4561 25.1642 27.4645 25.173 27.4702 25.1789Z" fill="#B6813C"/>
<path d="M16.468 25.2804C16.4765 25.2714 16.4821 25.2654 16.4905 25.2564C16.4821 25.2654 16.4736 25.2744 16.468 25.2804Z" fill="#B6813C"/>
<path d="M16.3818 25.4029C16.3903 25.3939 16.3959 25.3879 16.4043 25.3789C16.3959 25.3879 16.3875 25.3969 16.3818 25.4029Z" fill="#B6813C"/>
<path d="M16.2955 25.4647C16.304 25.4555 16.3096 25.4494 16.318 25.4402C16.3096 25.4494 16.3012 25.4586 16.2955 25.4647Z" fill="#B6813C"/>
<path d="M14.1106 25.7403C14.119 25.7311 14.1247 25.725 14.1331 25.7158C14.1247 25.725 14.1162 25.7342 14.1106 25.7403Z" fill="#B6813C"/>
<path d="M19.2189 28.2112C19.2105 28.2022 19.2049 28.1962 19.1964 28.1872C19.2049 28.1962 19.2133 28.2052 19.2189 28.2112Z" fill="#B6813C"/>
<path d="M20.4754 28.1903C20.4669 28.1993 20.4613 28.2053 20.4529 28.2143C20.4613 28.2053 20.4698 28.1963 20.4754 28.1903Z" fill="#B6813C"/>
<path d="M30.6327 28.2112C30.6243 28.2022 30.6187 28.1962 30.6102 28.1872C30.6187 28.1962 30.6271 28.2052 30.6327 28.2112Z" fill="#B6813C"/>
<path d="M31.9178 28.1903C31.9093 28.1993 31.9037 28.2053 31.8953 28.2143C31.9037 28.2053 31.9121 28.1963 31.9178 28.1903Z" fill="#B6813C"/>
<path d="M33.7468 29.1703C33.7553 29.1611 33.7609 29.155 33.7693 29.1458C33.7609 29.155 33.7525 29.1642 33.7468 29.1703Z" fill="#B6813C"/>
<path d="M23.7045 29.2714C23.7129 29.2806 23.7185 29.2867 23.727 29.2959C23.7185 29.2867 23.7101 29.2775 23.7045 29.2714Z" fill="#B6813C"/>
<path d="M28.7932 29.2714C28.8017 29.2806 28.8073 29.2867 28.8157 29.2959C28.8073 29.2867 28.7988 29.2775 28.7932 29.2714Z" fill="#B6813C"/>
<path d="M27.968 29.3536C27.9765 29.3446 27.9821 29.3386 27.9905 29.3296C27.9821 29.3386 27.9736 29.3476 27.968 29.3536Z" fill="#B6813C"/>
<path d="M17.4369 29.3939C17.4453 29.4029 17.451 29.4089 17.4594 29.4179C17.451 29.4089 17.4425 29.3999 17.4369 29.3939Z" fill="#B6813C"/>
<path d="M33.6318 29.4148C33.6403 29.4058 33.6459 29.3998 33.6543 29.3908C33.6459 29.3998 33.6375 29.4088 33.6318 29.4148Z" fill="#B6813C"/>
<path d="M22.218 29.4459C22.2265 29.4368 22.2321 29.4306 22.2405 29.4214C22.2321 29.4306 22.2236 29.4398 22.218 29.4459Z" fill="#B6813C"/>
<path d="M23.7906 29.4245C23.7991 29.4335 23.8047 29.4395 23.8131 29.4485C23.8047 29.4395 23.7963 29.4305 23.7906 29.4245Z" fill="#B6813C"/>
<path d="M28.8507 29.4245C28.8591 29.4335 28.8648 29.4395 28.8732 29.4485C28.8648 29.4395 28.8563 29.4305 28.8507 29.4245Z" fill="#B6813C"/>
<path d="M33.5743 29.5072C33.5828 29.498 33.5884 29.4919 33.5969 29.4827C33.5884 29.4919 33.58 29.5011 33.5743 29.5072Z" fill="#B6813C"/>
<path d="M22.1318 29.5684C22.1403 29.5592 22.1459 29.5531 22.1543 29.5439C22.1459 29.5531 22.1375 29.5623 22.1318 29.5684Z" fill="#B6813C"/>
<path d="M27.8243 29.5684C27.8328 29.5592 27.8384 29.5531 27.8468 29.5439C27.8384 29.5531 27.83 29.5623 27.8243 29.5684Z" fill="#B6813C"/>
<path d="M28.937 29.547C28.9454 29.556 28.9511 29.562 28.9595 29.571C28.9511 29.562 28.9426 29.553 28.937 29.547Z" fill="#B6813C"/>
<path d="M22.0743 29.6292C22.0828 29.6202 22.0884 29.6142 22.0968 29.6052C22.0884 29.6142 22.08 29.6232 22.0743 29.6292Z" fill="#B6813C"/>
<path d="M23.9344 29.6082C23.9429 29.6172 23.9485 29.6232 23.957 29.6322C23.9485 29.6232 23.9401 29.6142 23.9344 29.6082Z" fill="#B6813C"/>
<path d="M29.0232 29.6082C29.0316 29.6172 29.0373 29.6232 29.0457 29.6322C29.0373 29.6232 29.0288 29.6142 29.0232 29.6082Z" fill="#B6813C"/>
<path d="M33.488 29.6292C33.4965 29.6202 33.5021 29.6142 33.5105 29.6052C33.5021 29.6142 33.4937 29.6232 33.488 29.6292Z" fill="#B6813C"/>
<path d="M17.667 29.6695C17.6754 29.6785 17.6811 29.6845 17.6895 29.6935C17.6811 29.6845 17.6726 29.6755 17.667 29.6695Z" fill="#B6813C"/>
<path d="M21.988 29.6904C21.9965 29.6814 22.0021 29.6754 22.0105 29.6664C22.0021 29.6754 21.9937 29.6844 21.988 29.6904Z" fill="#B6813C"/>
<path d="M24.0208 29.6695C24.0292 29.6785 24.0348 29.6845 24.0432 29.6935C24.0348 29.6845 24.0264 29.6755 24.0208 29.6695Z" fill="#B6813C"/>
<path d="M27.738 29.6904C27.7465 29.6814 27.7521 29.6754 27.7605 29.6664C27.7521 29.6754 27.7437 29.6844 27.738 29.6904Z" fill="#B6813C"/>
<path d="M29.0807 29.6695C29.0891 29.6785 29.0948 29.6845 29.1032 29.6935C29.0948 29.6845 29.0863 29.6755 29.0807 29.6695Z" fill="#B6813C"/>
<path d="M33.4019 29.6904C33.4103 29.6814 33.4159 29.6754 33.4244 29.6664C33.4159 29.6754 33.4075 29.6844 33.4019 29.6904Z" fill="#B6813C"/>
<path d="M17.7532 29.7307C17.7616 29.7396 17.7672 29.7454 17.7757 29.7542C17.7672 29.7454 17.7588 29.7366 17.7532 29.7307Z" fill="#B6813C"/>
<path d="M21.9305 29.7517C21.939 29.7427 21.9446 29.7367 21.9531 29.7277C21.9446 29.7367 21.9362 29.7457 21.9305 29.7517Z" fill="#B6813C"/>
<path d="M24.0781 29.7307C24.0866 29.7396 24.0922 29.7454 24.1006 29.7542C24.0922 29.7454 24.0838 29.7366 24.0781 29.7307Z" fill="#B6813C"/>
<path d="M27.6519 29.7517C27.6603 29.7427 27.6659 29.7367 27.6744 29.7277C27.6659 29.7367 27.6575 29.7457 27.6519 29.7517Z" fill="#B6813C"/>
<path d="M29.167 29.7307C29.1754 29.7396 29.1811 29.7454 29.1895 29.7542C29.1811 29.7454 29.1726 29.7366 29.167 29.7307Z" fill="#B6813C"/>
<path d="M33.3156 29.7517C33.324 29.7427 33.3296 29.7367 33.3381 29.7277C33.3296 29.7367 33.3212 29.7457 33.3156 29.7517Z" fill="#B6813C"/>
<path d="M17.8395 29.792C17.8479 29.8008 17.8535 29.8067 17.862 29.8155C17.8535 29.8067 17.8451 29.7979 17.8395 29.792Z" fill="#B6813C"/>
<path d="M21.8156 29.8134C21.824 29.8043 21.8296 29.7981 21.8381 29.7889C21.8296 29.7981 21.8212 29.8073 21.8156 29.8134Z" fill="#B6813C"/>
<path d="M24.1932 29.792C24.2017 29.8008 24.2073 29.8067 24.2157 29.8155C24.2073 29.8067 24.1989 29.7979 24.1932 29.792Z" fill="#B6813C"/>
<path d="M27.5369 29.8134C27.5453 29.8043 27.5509 29.7981 27.5594 29.7889C27.5509 29.7981 27.5425 29.8073 27.5369 29.8134Z" fill="#B6813C"/>
<path d="M29.2532 29.792C29.2616 29.8008 29.2672 29.8067 29.2757 29.8155C29.2672 29.8067 29.2588 29.7979 29.2532 29.792Z" fill="#B6813C"/>
<path d="M33.2294 29.8134C33.2378 29.8043 33.2434 29.7981 33.2519 29.7889C33.2434 29.7981 33.235 29.8073 33.2294 29.8134Z" fill="#B6813C"/>
<path d="M17.9832 29.8532C17.9916 29.8624 17.9972 29.8686 18.0057 29.8777C17.9972 29.8686 17.9888 29.8594 17.9832 29.8532Z" fill="#B6813C"/>
<path d="M21.7006 29.8742C21.709 29.8652 21.7146 29.8592 21.7231 29.8502C21.7146 29.8592 21.7062 29.8682 21.7006 29.8742Z" fill="#B6813C"/>
<path d="M24.3082 29.8532C24.3167 29.8624 24.3223 29.8686 24.3307 29.8777C24.3223 29.8686 24.3139 29.8594 24.3082 29.8532Z" fill="#B6813C"/>
<path d="M27.3931 29.8742C27.4015 29.8652 27.4071 29.8592 27.4156 29.8502C27.4071 29.8592 27.3987 29.8682 27.3931 29.8742Z" fill="#B6813C"/>
<path d="M29.3683 29.8532C29.3767 29.8624 29.3824 29.8686 29.3908 29.8777C29.3824 29.8686 29.3739 29.8594 29.3683 29.8532Z" fill="#B6813C"/>
<path d="M33.1143 29.8742C33.1227 29.8652 33.1283 29.8592 33.1368 29.8502C33.1283 29.8592 33.1199 29.8682 33.1143 29.8742Z" fill="#B6813C"/>
<path d="M26.0993 25.2534C26.0993 26.2058 26.0993 27.1582 26.0993 28.1229C25.9585 28.1229 25.8003 28.1229 25.625 28.1229C25.625 28.0586 25.625 27.9974 25.625 27.9392C25.625 27.1062 25.625 26.2762 25.625 25.4432C25.625 25.3759 25.6163 25.3085 25.6221 25.2442C25.625 25.2135 25.6566 25.1584 25.6738 25.1584C25.809 25.1492 25.9412 25.1523 26.0763 25.1584C26.0907 25.1584 26.1051 25.2044 26.1194 25.2289C26.1137 25.235 26.1079 25.2442 26.0993 25.2534Z" fill="#E59A37"/>
<path d="M25.6307 20.9322C25.7917 20.9322 25.9642 20.9322 26.1166 20.9322C26.1166 21.707 26.1166 22.4726 26.1166 23.2536C25.9729 23.2536 25.809 23.2536 25.6307 23.2536C25.6307 22.4849 25.6307 21.7162 25.6307 20.9322Z" fill="#E59A37"/>
<path d="M26.0992 25.2534C26.1077 25.2442 26.1133 25.2381 26.1217 25.2289C26.1133 25.235 26.1077 25.2442 26.0992 25.2534Z" fill="#4E4A47"/>
<path d="M14.7317 23.8936C14.5534 23.8936 14.3809 23.8936 14.1969 23.8936C14.1969 22.9167 14.1969 21.9306 14.1969 20.9383C14.3751 20.9383 14.5477 20.9383 14.7317 20.9383C14.7317 21.9244 14.7317 22.9106 14.7317 23.8936Z" fill="#E59A37"/>
</g>
<defs>
<clipPath id="clip0">
<rect width="46" height="49" fill="white"/>
</clipPath>
</defs>
</svg>
