<svg class="logo" viewBox="0 0 38 23" fill="none" xmlns="http://www.w3.org/2000/svg">
<g id="Group">
<path id="Vector" d="M6.42992 11.835C6.05458 11.2167 5.45646 10.7101 4.69073 10.4316C2.92218 9.78726 0.927616 10.6003 0.237097 12.2479C-0.454857 13.8944 0.419396 15.7507 2.1876 16.3947C2.96944 16.6786 3.79535 16.6786 4.53314 16.4474L12.5866 19.9923C12.1489 18.6696 12.3057 17.2132 13.059 15.9862C13.0704 15.9678 13.0823 15.9485 13.0937 15.9302L13.8559 14.9947L14.4286 14.2913L6.42992 11.835ZM5.46756 14.1516C5.0299 15.1948 3.76634 15.71 2.64604 15.3022C2.63923 15.3002 2.63207 15.2968 2.62526 15.2945C1.51893 14.8796 0.974892 13.7117 1.4104 12.6748C1.84449 11.6392 3.09301 11.1239 4.20758 11.5155C4.21582 11.5175 4.2237 11.5208 4.23194 11.5232C5.35224 11.9317 5.90559 13.1073 5.46756 14.1516Z" fill="white"/>
<path id="Vector_2" d="M35.5471 2.28346C32.2775 -0.761153 26.9761 -0.761153 23.7065 2.28346C22.1901 3.69455 21.3782 5.51084 21.2661 7.35749L21.2489 7.38017L14.6195 15.5225L13.954 16.3389C13.9436 16.3549 13.9332 16.3713 13.924 16.3883C12.8878 18.0758 13.1432 20.2643 14.6908 21.7054C16.2383 23.1465 18.5885 23.3843 20.4007 22.4195C20.4158 22.4132 20.4298 22.4045 20.4434 22.3968L21.3394 21.7635L30.0029 15.6482L30.0974 15.5815C32.0805 15.4771 34.031 14.7211 35.5463 13.31C38.8178 10.2647 38.8178 5.32808 35.5471 2.28346ZM29.6003 14.9409C27.9521 14.9409 26.4253 14.4546 25.1756 13.6298L24.7888 14.1548L24.7853 14.1591L22.2489 17.6016L20.4842 19.9965L20.4298 20.0706L20.2428 20.3267C20.1794 20.4021 20.1089 20.4731 20.0351 20.5418C19.8388 20.7246 19.6204 20.8753 19.3894 20.9934C18.8037 21.2902 18.1283 21.3816 17.4882 21.2645C16.9557 21.1678 16.4464 20.9267 16.0342 20.5418C15.1252 19.6977 14.9647 18.4187 15.5492 17.4185C15.6763 17.2024 15.8379 17.0003 16.0342 16.8152C16.0943 16.7605 16.1577 16.7065 16.2225 16.6561C16.2365 16.6454 16.2501 16.6348 16.2652 16.6237L16.6197 16.398L22.8864 12.3962L22.8899 12.3942L23.4397 12.0413C22.5031 10.8594 21.9498 9.39791 21.9498 7.81673C21.9498 3.88164 25.3751 0.692952 29.6 0.692952C33.8258 0.692952 37.25 3.88164 37.25 7.81673C37.2505 11.7508 33.8261 14.9409 29.6003 14.9409Z" fill="white"/>
<path id="Vector_3" d="M34.4254 11.4755C33.2854 12.7322 31.5816 13.53 29.6777 13.53C27.7733 13.53 26.0699 12.7322 24.9299 11.4755C24.9636 11.2501 25.0159 11.031 25.0857 10.8189C25.5653 9.33605 26.8504 8.17777 28.4678 7.78622C27.9456 7.43704 27.6068 6.86674 27.6068 6.22206C27.6068 5.1575 28.5345 4.2937 29.6777 4.2937C30.8208 4.2937 31.7485 5.1575 31.7485 6.22206C31.7485 6.8664 31.4097 7.43704 30.8874 7.78622C32.5049 8.1781 33.79 9.33605 34.2696 10.8189C34.3394 11.031 34.3917 11.2501 34.4254 11.4755Z" fill="white"/>
<path id="Vector_4" d="M17.955 20.0236C18.6565 20.0236 19.2253 19.494 19.2253 18.8407C19.2253 18.1873 18.6565 17.6577 17.955 17.6577C17.2533 17.6577 16.6846 18.1873 16.6846 18.8407C16.6846 19.494 17.2533 20.0236 17.955 20.0236Z" fill="white"/>
</g>
</svg>
